<?xml version="1.0" encoding="UTF-8"?>
<svg width="51px" height="39px" viewBox="0 0 51 39" version="1.1" xmlns="http://www.w3.org/2000/svg" xmlns:xlink="http://www.w3.org/1999/xlink">

            <ellipse id="Oval" cx="16.1803116" cy="5.02186709" rx="1.1314845" ry="1.11898734"></ellipse>
            <path d="M39.122075,26.8686139 L39.5460489,21.3017342 L37.5716085,21.1546203 L37.2556248,25.3021139 L33.8039315,22.4049241 L23.4037586,22.5281772 L23.4037586,20.5790823 C24.3099445,20.5319367 25.199075,20.3394873 26.0523475,20.0033797 C27.0024617,19.6290949 27.8584796,19.0982342 28.6018483,18.4231392 L43.4559103,17.9246139 L39.2089331,15.8822152 C29.540398,10.9852468 23.2997618,4.2999557 22.6163785,3.54982278 C21.9829135,2.8546519 20.4471729,1.19912658 19.8660392,0.842860759 C18.9785726,0.298753165 17.9599038,0.0111898734 16.9202692,0.0111898734 C16.1775661,0.0111898734 15.4493393,0.156658228 14.7558891,0.443563291 C13.0038352,1.16835443 11.7955595,2.71774051 11.4411387,4.47413924 L8.91651387,6.66422785 L11.7442268,7.61322785 C12.0164486,8.27647468 12.4146313,8.88253797 12.9183083,9.39307595 C13.1195628,9.5970443 13.7386346,10.1194304 14.7374192,10.9485506 C14.4769282,12.4422342 14.6379984,13.9658671 15.2120604,15.3910127 C16.2903817,18.0676139 18.6401256,19.9410127 21.4238271,20.4509747 L21.4238271,22.551462 L10.9818059,22.6751266 C11.214925,20.9872658 10.8729005,19.255962 9.98119086,17.7067405 C8.91110604,15.8473291 7.20980261,14.5242089 5.19101794,13.9812532 L4.24032137,13.7255316 L3.97708483,14.6644937 C3.41816476,16.6583481 3.69987113,18.7804747 4.76995595,20.6399684 C5.2051615,21.3961076 5.74602773,22.0616582 6.3687602,22.6238671 C3.47939804,23.2375 1.03697227,25.4141772 0.258411093,28.2452975 L0,29.1855759 L0.949448613,29.4459051 C1.61361338,29.6279873 2.30223817,29.7203038 2.9961044,29.7203038 C6.31160359,29.7203038 9.35904078,27.6226139 10.5203931,24.6389494 L25.4401811,24.4622975 L23.4155726,26.5757848 C22.5291044,26.2366329 21.5903883,26.0622025 20.6148989,26.0622025 C17.5087243,26.0622025 14.6560522,27.8046962 13.3473573,30.5012911 L12.9210538,31.3796962 L13.807106,31.8055696 C14.8622153,32.3127342 16.0028515,32.5698544 17.1972333,32.5698544 C18.7138385,32.5698544 20.16946,32.1536076 21.414925,31.4145 C21.3686672,31.9955506 21.3836427,32.5881203 21.4670065,33.1848861 C21.7627732,35.3043797 22.8456705,37.157538 24.5166069,38.4028228 L25.3034046,38.9891392 L25.9002626,38.2139937 C27.1676085,36.5678481 27.7027341,34.4939367 27.4071338,32.3745253 C27.1537977,30.5588861 26.3212414,28.9399747 25.0378385,27.7299873 L28.1993393,24.4297152 L33.0874356,24.3717911 L49.6357292,38.2618797 L50.9171354,36.7688544 L39.122075,26.8686139 L39.122075,26.8686139 Z M17.0515546,14.6662215 C16.5537015,13.4305633 16.4629331,12.0984747 16.7886509,10.8138608 L16.9392382,10.2201392 L16.2162529,9.61942405 C15.7531762,9.2353481 14.523186,8.21542405 14.3353263,8.02527848 C13.897292,7.5813038 13.5818907,7.02353797 13.4233997,6.41229114 C12.9835351,4.7159557 13.885062,2.92656329 15.5201403,2.2501519 C15.9703214,2.06387342 16.4414682,1.96941772 16.9204356,1.96941772 C17.5910897,1.96941772 18.2490979,2.15544937 18.813093,2.50093671 C18.9713344,2.60921519 19.749646,3.32857595 21.1488597,4.86422152 C21.7906444,5.56860759 27.208708,11.3749177 35.7069054,16.2249873 L27.761721,16.4917342 L27.4847569,16.7686835 C26.8696786,17.3841266 26.1412855,17.8602722 25.3195449,18.1838734 C24.563447,18.4818038 23.7716574,18.6327025 22.9660571,18.6327025 C20.3438418,18.6328671 18.0221354,17.0759937 17.0515546,14.6662215 L17.0515546,14.6662215 Z M15.6995139,30.4218101 C16.8185188,28.9363544 18.647447,28.0203481 20.6148989,28.0203481 C21.1298907,28.0203481 21.6305726,28.0839494 22.1125351,28.2101646 C20.9936134,29.6954557 19.164602,30.6116266 17.1971501,30.6116266 C16.6824078,30.6116266 16.1817259,30.547943 15.6995139,30.4218101 L15.6995139,30.4218101 Z M25.4454225,32.6420127 C25.6129821,33.8427848 25.4158874,35.0563101 24.9004796,36.1015759 C24.1180914,35.2332911 23.5960277,34.1179241 23.4284682,32.9171519 C23.2609918,31.716462 23.4580033,30.5028544 23.9735775,29.4574241 C24.7559657,30.3258734 25.2780294,31.4413228 25.4454225,32.6420127 L25.4454225,32.6420127 Z M5.69818923,16.2588038 C6.75063622,16.7777342 7.65407667,17.6218291 8.26041925,18.6753228 C8.86676183,19.7287342 9.13931648,20.927943 9.05304078,22.0877405 C8.0005938,21.5688101 7.09715334,20.7247152 6.49081077,19.6711392 C5.88446819,18.6177278 5.61191354,17.4187658 5.69818923,16.2588038 L5.69818923,16.2588038 Z M2.9961044,27.7621582 C2.85000979,27.7621582 2.70433116,27.7565633 2.55931811,27.7456203 C3.55519086,25.7619684 5.70051876,24.4077468 8.02122675,24.4077468 C8.16732137,24.4077468 8.313,24.4133418 8.45801305,24.4242848 C7.46214029,26.4079367 5.316646,27.7621582 2.9961044,27.7621582 L2.9961044,27.7621582 Z" id="Shape"></path>

</svg>
