<?xml version="1.0" encoding="UTF-8"?>
<svg width="39px" height="41px" viewBox="0 0 39 41" version="1.1" xmlns="http://www.w3.org/2000/svg" xmlns:xlink="http://www.w3.org/1999/xlink">
    <!-- Generator: Sketch 42 (36781) - http://www.bohemiancoding.com/sketch -->
    <title>blog</title>
    <desc>Created with Sketch.</desc>
    <defs></defs>
    <g id="Page-1" stroke="none" stroke-width="1" fill="none" fill-rule="evenodd">
        <g id="blog" fill="#000000">
            <g id="notebook">
                <g id="Group">
                    <path d="M28.5386853,0 L0.672401786,0 C0.311825893,0 0.0195,0.292844681 0.0195,0.654255319 L0.0195,40.3457447 C0.0195,40.7071553 0.311825893,41 0.672401786,41 L28.5386853,41 C30.338779,41 31.8031942,39.5325489 31.8031942,37.7287234 L31.8031942,3.2712766 C31.8031942,1.46745106 30.338779,0 28.5386853,0 L28.5386853,0 Z M30.4973906,37.7287234 C30.4973906,38.8109489 29.6187589,39.6914894 28.5386853,39.6914894 L1.32530357,39.6914894 L1.32530357,1.30851064 L28.5386853,1.30851064 C29.6187589,1.30851064 30.4973906,2.18905106 30.4973906,3.2712766 L30.4973906,37.7287234 L30.4973906,37.7287234 Z" id="Shape"></path>
                    <path d="M3.50164286,3.2712766 L3.50164286,29.8776596 C3.50164286,30.2390702 3.79396875,30.5319149 4.15454464,30.5319149 C4.51529464,30.5317404 4.80744643,30.238983 4.80744643,29.8776596 L4.80744643,3.2712766 C4.80744643,2.90995319 4.51529464,2.61719574 4.1548058,2.61702128 C3.79396875,2.61702128 3.50164286,2.90986596 3.50164286,3.2712766 L3.50164286,3.2712766 Z" id="Shape"></path>
                    <path d="M3.50164286,32.4946809 L3.50164286,37.7287234 C3.50164286,38.090134 3.79396875,38.3829787 4.15454464,38.3829787 C4.51529464,38.3828043 4.80744643,38.0900468 4.80744643,37.7287234 L4.80744643,32.4946809 C4.80744643,32.1333574 4.51529464,31.8406 4.1548058,31.8404255 C3.79396875,31.8404255 3.50164286,32.1332702 3.50164286,32.4946809 L3.50164286,32.4946809 Z" id="Shape"></path>
                    <path d="M25.0565424,6.10638298 L10.2482946,6.10638298 C9.88771875,6.10638298 9.59539286,6.39922766 9.59539286,6.7606383 L9.59539286,14.6117021 C9.59539286,14.9731128 9.88771875,15.2659574 10.2482946,15.2659574 L25.0565424,15.2659574 C25.4171183,15.2659574 25.7094442,14.9731128 25.7094442,14.6117021 L25.7094442,6.7606383 C25.7094442,6.39922766 25.4171183,6.10638298 25.0565424,6.10638298 L25.0565424,6.10638298 Z M24.4036406,13.9574468 L10.9011964,13.9574468 L10.9011964,7.41489362 L24.4036406,7.41489362 L24.4036406,13.9574468 L24.4036406,13.9574468 Z" id="Shape"></path>
                    <path d="M12.8599018,10.0319149 L22.4449353,10.0319149 C22.8055112,10.0319149 23.0978371,9.73907021 23.0978371,9.37765957 C23.0978371,9.01624894 22.8055112,8.72340426 22.4449353,8.72340426 L12.8599018,8.72340426 C12.4993259,8.72340426 12.207,9.01624894 12.207,9.37765957 C12.207,9.73907021 12.4993259,10.0319149 12.8599018,10.0319149 L12.8599018,10.0319149 Z" id="Shape"></path>
                    <path d="M12.8599018,12.6489362 L22.4449353,12.6489362 C22.8055112,12.6489362 23.0978371,12.3560915 23.0978371,11.9946809 C23.0978371,11.6332702 22.8055112,11.3404255 22.4449353,11.3404255 L12.8599018,11.3404255 C12.4993259,11.3404255 12.207,11.6332702 12.207,11.9946809 C12.207,12.3560915 12.4993259,12.6489362 12.8599018,12.6489362 L12.8599018,12.6489362 Z" id="Shape"></path>
                    <path d="M38.977279,11.1280979 C38.9757121,11.1120468 38.9729263,11.0962574 38.9702277,11.0805553 C38.9692701,11.075234 38.9688348,11.0699128 38.9677902,11.0645915 C38.9638728,11.0449638 38.9589107,11.0257723 38.9533393,11.0068426 C38.952904,11.0053596 38.9526429,11.0039638 38.9522076,11.0024809 C38.9452433,10.9796255 38.9371473,10.9572936 38.9278326,10.9355723 L37.1894598,6.74537234 C37.0882165,6.50129149 36.8502991,6.34226383 36.5866138,6.34226383 C36.3229286,6.34226383 36.0850112,6.50129149 35.9837679,6.74537234 L34.2453951,10.9355723 C34.2360804,10.9572936 34.2279844,10.9796255 34.2210201,11.0024809 C34.2205848,11.0039638 34.2203237,11.0053596 34.2198884,11.0068426 C34.214317,11.0257723 34.2093549,11.0449638 34.2054375,11.0645915 C34.2043929,11.0699128 34.2039576,11.075234 34.203,11.0805553 C34.2003013,11.0962574 34.1975156,11.1120468 34.1959487,11.1280979 C34.1937723,11.1497319 34.1926406,11.1714532 34.1926406,11.1932617 L34.1926406,39.037234 C34.1926406,40.1194596 35.0712723,41 36.151346,41 L37.0218817,41 C38.1019554,41 38.9805871,40.1194596 38.9805871,39.037234 L38.9805871,11.1932617 C38.9805,11.1714532 38.9793683,11.1496447 38.977279,11.1280979 L38.977279,11.1280979 Z M37.0217946,39.6914894 L36.1512589,39.6914894 C35.7912054,39.6914894 35.4983571,39.398034 35.4983571,39.037234 L35.4983571,37.9468085 L37.6746964,37.9468085 L37.6746964,39.037234 C37.6746964,39.398034 37.3818482,39.6914894 37.0217946,39.6914894 L37.0217946,39.6914894 Z M37.6746964,11.847517 L37.6746964,36.6382979 L35.4983571,36.6382979 L35.4983571,11.847517 L37.6746964,11.847517 L37.6746964,11.847517 Z M35.8240246,10.5390064 L36.5866138,8.70098511 L37.3492031,10.5390064 L35.8240246,10.5390064 L35.8240246,10.5390064 Z" id="Shape"></path>
                </g>
            </g>
        </g>
    </g>
</svg>