<?xml version="1.0" encoding="UTF-8"?>
<svg width="38px" height="45px" viewBox="0 0 38 45" version="1.1" xmlns="http://www.w3.org/2000/svg" xmlns:xlink="http://www.w3.org/1999/xlink">
    <!-- Generator: Sketch 42 (36781) - http://www.bohemiancoding.com/sketch -->
    <title>bring</title>
    <desc>Created with Sketch.</desc>
    <defs></defs>
    <g id="Page-1" stroke="none" stroke-width="1" fill="none" fill-rule="evenodd">
        <g id="bring" fill="#000000">
            <g id="backpack">
                <g id="Group">
                    <path d="M28.87471,23.9530333 L9.12529002,23.9530333 C7.98282135,23.9530333 7.05336427,24.8813894 7.05336427,26.0225049 L7.05336427,38.7035225 C7.05336427,39.844638 7.98282135,40.7729941 9.12529002,40.7729941 L28.87471,40.7729941 C30.0171787,40.7729941 30.9466357,39.844638 30.9466357,38.7035225 L30.9466357,26.0225049 C30.9466357,24.8813894 30.0171787,23.9530333 28.87471,23.9530333 L28.87471,23.9530333 Z M9.12529002,25.2739726 L28.87471,25.2739726 C29.287949,25.2739726 29.6241299,25.6097554 29.6241299,26.0225049 L29.6241299,28.1800391 L8.37587007,28.1800391 L8.37587007,26.0225049 C8.37587007,25.6097554 8.71205104,25.2739726 9.12529002,25.2739726 L9.12529002,25.2739726 Z M11.9466357,32.3189824 C12.3598747,32.3189824 12.6960557,32.6547652 12.6960557,33.0675147 L12.6960557,35.2250489 L11.1972158,35.2250489 L11.1972158,33.0675147 C11.1972158,32.6547652 11.5333968,32.3189824 11.9466357,32.3189824 L11.9466357,32.3189824 Z M28.87471,39.4520548 L9.12529002,39.4520548 C8.71205104,39.4520548 8.37587007,39.116272 8.37587007,38.7035225 L8.37587007,29.5009785 L11.2853828,29.5009785 L11.2853828,31.1067123 C10.4663109,31.3830528 9.87470998,32.1572994 9.87470998,33.0675147 L9.87470998,35.8855186 C9.87470998,36.250274 10.1707749,36.5459883 10.5359629,36.5459883 L13.3573086,36.5459883 C13.7224965,36.5459883 14.0185615,36.250274 14.0185615,35.8855186 L14.0185615,33.0675147 C14.0185615,32.1572994 13.4269606,31.3830528 12.6078886,31.1067123 L12.6078886,29.5009785 L29.6241299,29.5009785 L29.6241299,38.7035225 C29.6241299,39.116272 29.287949,39.4520548 28.87471,39.4520548 L28.87471,39.4520548 Z" id="Shape"></path>
                    <path d="M12.6519722,20.3424658 L25.3480278,20.3424658 C25.7132158,20.3424658 26.0092807,20.0467515 26.0092807,19.6819961 L26.0092807,13.1949511 C26.0092807,12.2567319 25.5532807,11.3960078 24.7894896,10.8925538 C23.0682923,9.75813112 21.0663712,9.15851272 19,9.15851272 C16.9336288,9.15851272 14.9317077,9.75813112 13.2105104,10.8926419 C12.4467193,11.3960078 11.9907193,12.2567319 11.9907193,13.1950391 L11.9907193,19.6819961 C11.9907193,20.0467515 12.2867842,20.3424658 12.6519722,20.3424658 L12.6519722,20.3424658 Z M13.3132251,13.1949511 C13.3132251,12.7018885 13.5471323,12.2533855 13.9389466,11.9950978 C15.4433411,11.0036008 17.1933689,10.4794521 19,10.4794521 C20.8066311,10.4794521 22.5566589,11.0036008 24.0610534,11.9950978 C24.4528677,12.2533855 24.6867749,12.7018885 24.6867749,13.1949511 L24.6867749,19.0215264 L13.3132251,19.0215264 L13.3132251,13.1949511 L13.3132251,13.1949511 Z" id="Shape"></path>
                    <path d="M21.1160093,11.9765166 L16.8839907,11.9765166 C16.5188028,11.9765166 16.2227378,12.2722309 16.2227378,12.6369863 C16.2227378,13.0017417 16.5188028,13.297456 16.8839907,13.297456 L21.1160093,13.297456 C21.4811972,13.297456 21.7772622,13.0017417 21.7772622,12.6369863 C21.7772622,12.2722309 21.4811972,11.9765166 21.1160093,11.9765166 L21.1160093,11.9765166 Z" id="Shape"></path>
                    <path d="M35.9280742,23.9530333 L35.1786543,23.9530333 L35.1786543,19.6819961 C35.1786543,17.3283464 34.6718701,15.0908513 33.7622506,13.0720157 C33.7656891,13.0448043 33.7679814,13.0173288 33.7679814,12.9892368 L33.7679814,5.59197652 C33.7679814,4.45086106 32.8385244,3.52250489 31.6960557,3.52250489 L29.5800464,3.52250489 C28.4375777,3.52250489 27.5081206,4.45086106 27.5081206,5.59197652 L27.5081206,5.94343444 C26.8069281,5.50866928 26.0708213,5.12515656 25.3039443,4.79985323 L25.3039443,2.7739726 C25.3039443,1.24441292 24.0580557,0 22.5266821,0 L15.4733179,0 C13.9419443,0 12.6960557,1.24441292 12.6960557,2.7739726 L12.6960557,4.79985323 C11.9291787,5.12515656 11.1930719,5.50866928 10.4918794,5.94343444 L10.4918794,5.59197652 C10.4918794,4.45086106 9.56242227,3.52250489 8.4199536,3.52250489 L6.30394432,3.52250489 C5.16147564,3.52250489 4.23201856,4.45086106 4.23201856,5.59197652 L4.23201856,12.9892368 C4.23201856,13.0173288 4.2343109,13.0448924 4.23774942,13.0720157 C3.32812993,15.0908513 2.82134571,17.3283464 2.82134571,19.6819961 L2.82134571,23.9530333 L2.07192575,23.9530333 C0.929457077,23.9530333 0,24.8813894 0,26.0225049 L0,38.7035225 C0,39.844638 0.929457077,40.7729941 2.07192575,40.7729941 L3.17286775,40.7729941 C4.03196752,43.2310861 6.37500696,45 9.12529002,45 L28.87471,45 C31.624993,45 33.9680325,43.2310861 34.8271323,40.7729941 L35.9280742,40.7729941 C37.0705429,40.7729941 38,39.844638 38,38.7035225 L38,26.0225049 C38,24.8813894 37.0705429,23.9530333 35.9280742,23.9530333 L35.9280742,23.9530333 Z M35.9280742,25.2739726 C36.3413132,25.2739726 36.6774942,25.6097554 36.6774942,26.0225049 L36.6774942,28.1800391 L35.1786543,28.1800391 L35.1786543,25.2739726 L35.9280742,25.2739726 L35.9280742,25.2739726 Z M19,4.84344423 C26.9700371,4.84344423 33.4934292,11.1448532 33.8406311,19.0215264 L33.0326682,19.0215264 C32.6487889,19.0215264 32.3291833,18.7231703 32.2891555,18.327593 C31.9587053,15.0561546 30.4298886,12.0309393 27.9843109,9.80938356 C25.5218933,7.57241683 22.3311276,6.34050881 19,6.34050881 C15.6688724,6.34050881 12.4781067,7.57241683 10.0156009,9.80938356 C7.5700232,12.0309393 6.0412065,15.0561546 5.71075638,18.327593 C5.67072854,18.7232583 5.35112297,19.0215264 4.96724362,19.0215264 L4.15928074,19.0215264 C4.50657077,11.1448532 11.0299629,4.84344423 19,4.84344423 L19,4.84344423 Z M28.8306265,5.59197652 C28.8306265,5.17922701 29.1668074,4.84344423 29.5800464,4.84344423 L31.6960557,4.84344423 C32.1092947,4.84344423 32.4454756,5.17922701 32.4454756,5.59197652 L32.4454756,10.704364 C31.4578283,9.23345401 30.2345986,7.93338552 28.8306265,6.85717221 L28.8306265,5.59197652 L28.8306265,5.59197652 Z M14.0185615,2.7739726 C14.0185615,1.97277886 14.671174,1.32093933 15.4733179,1.32093933 L22.5266821,1.32093933 C23.328826,1.32093933 23.9814385,1.97277886 23.9814385,2.7739726 L23.9814385,4.30731898 C22.4114478,3.79858121 20.7375081,3.52250489 19,3.52250489 C17.2624919,3.52250489 15.5885522,3.79858121 14.0185615,4.30731898 L14.0185615,2.7739726 L14.0185615,2.7739726 Z M5.55452436,5.59197652 C5.55452436,5.17922701 5.89070534,4.84344423 6.30394432,4.84344423 L8.4199536,4.84344423 C8.83319258,4.84344423 9.16937355,5.17922701 9.16937355,5.59197652 L9.16937355,6.85717221 C7.76540139,7.93338552 6.54217169,9.23345401 5.55452436,10.704364 L5.55452436,5.59197652 L5.55452436,5.59197652 Z M2.07192575,25.2739726 L2.82134571,25.2739726 L2.82134571,28.1800391 L1.3225058,28.1800391 L1.3225058,26.0225049 C1.3225058,25.6097554 1.65868677,25.2739726 2.07192575,25.2739726 L2.07192575,25.2739726 Z M2.07192575,39.4520548 C1.65868677,39.4520548 1.3225058,39.116272 1.3225058,38.7035225 L1.3225058,29.5009785 L2.82134571,29.5009785 L2.82134571,38.7035225 C2.82134571,38.9569667 2.83818561,39.2063601 2.86745708,39.4520548 L2.07192575,39.4520548 L2.07192575,39.4520548 Z M28.87471,43.6790607 L9.12529002,43.6790607 C6.37853364,43.6790607 4.14385151,41.4470254 4.14385151,38.7035225 L4.14385151,20.3424658 L4.96724362,20.3424658 C6.03283063,20.3424658 6.91811601,19.5332583 7.02647332,18.4601272 C7.32412529,15.5135519 8.70164733,12.7883659 10.9053828,10.7865264 C13.1239304,8.77130137 15.9986172,7.66144814 19,7.66144814 C22.0013828,7.66144814 24.8760696,8.77130137 27.0946172,10.7866145 C29.2983527,12.7883659 30.6758747,15.5136399 30.9735267,18.4602153 C31.081884,19.5333464 31.9671694,20.3425538 33.0327564,20.3425538 L33.8561485,20.3425538 L33.8561485,38.7036106 C33.8561485,41.4470254 31.6214664,43.6790607 28.87471,43.6790607 L28.87471,43.6790607 Z M35.9280742,39.4520548 L35.1325429,39.4520548 C35.1618144,39.2063601 35.1786543,38.9569667 35.1786543,38.7035225 L35.1786543,29.5009785 L36.6774942,29.5009785 L36.6774942,38.7035225 C36.6774942,39.116272 36.3413132,39.4520548 35.9280742,39.4520548 L35.9280742,39.4520548 Z" id="Shape"></path>
                </g>
            </g>
        </g>
    </g>
</svg>