<?xml version="1.0" encoding="UTF-8"?>
<svg width="46px" height="30px" viewBox="0 0 46 30" version="1.1" xmlns="http://www.w3.org/2000/svg" xmlns:xlink="http://www.w3.org/1999/xlink">
            <path d="M29.7788268,17.9897059 C29.9355455,18.1926471 30.1731126,18.2993137 30.4134675,18.2993137 C30.5815368,18.2993137 30.751,18.2471569 30.894974,18.1393137 C31.2451515,17.8770588 31.3131558,17.385 31.0469134,17.0402941 L28.3135974,13.5010784 C28.0472554,13.1561765 27.5475281,13.0893137 27.1974502,13.3514706 C26.8472727,13.6137255 26.7792684,14.1057843 27.0455108,14.4504902 L29.7788268,17.9897059 L29.7788268,17.9897059 Z" id="Shape"></path>
            <path d="M45.2034632,28.4223529 L44.6060606,28.4223529 L44.6060606,26.0657843 C44.6060606,25.6326471 44.2494113,25.2814706 43.8095238,25.2814706 C43.3696364,25.2814706 43.012987,25.6326471 43.012987,26.0657843 L43.012987,27.3448039 L24.1731991,2.95068627 L25.3265844,1.4572549 C25.5929264,1.11245098 25.5249221,0.620392157 25.1747446,0.358235294 C24.8246667,0.0959803922 24.3248398,0.162941176 24.0585974,0.507745098 L23.1725498,1.655 L22.1405368,0.318627451 C21.8742944,-0.0261764706 21.3745671,-0.0931372549 21.0243896,0.169117647 C20.6742121,0.431372549 20.6062078,0.923431373 20.8725498,1.26813725 L22.172,2.95068627 L3.18614719,27.5338235 L3.18614719,26.0658824 C3.18614719,25.6327451 2.82949784,25.2815686 2.38961039,25.2815686 C1.94972294,25.2815686 1.59307359,25.6327451 1.59307359,26.0658824 L1.59307359,28.422451 L0.796536797,28.422451 C0.356649351,28.422451 0,28.7736275 0,29.2067647 C0,29.639902 0.356649351,29.9910784 0.796536797,29.9910784 L45.2034632,29.9910784 C45.6433506,29.9910784 46,29.639902 46,29.2067647 C46,28.7736275 45.6433506,28.4223529 45.2034632,28.4223529 L45.2034632,28.4223529 Z M41.8438701,28.4223529 L39.8374935,28.4223529 L33.2917532,19.9468627 C33.0255108,19.6020588 32.5258831,19.535098 32.1756061,19.7973529 C31.8254286,20.0595098 31.7574242,20.5515686 32.0237662,20.8963725 L37.8360952,28.4222549 L23.9115368,28.4222549 L23.9115368,10.392549 L24.972026,11.7657843 C25.1287446,11.9687255 25.3662121,12.0753922 25.6066667,12.0753922 C25.7747359,12.0753922 25.9441991,12.0232353 26.0882727,11.9152941 C26.4384502,11.6531373 26.5064545,11.1610784 26.2401126,10.8162745 L23.7490433,7.59078431 C23.7448615,7.58539216 23.7401818,7.58068627 23.7359004,7.5754902 C23.7257446,7.56303922 23.7154892,7.55068627 23.7045368,7.53882353 C23.6957749,7.52921569 23.6866147,7.52029412 23.677355,7.51117647 C23.6684935,7.50245098 23.659632,7.49372549 23.6502727,7.48529412 C23.6379264,7.47421569 23.6250823,7.46382353 23.6121385,7.45362745 C23.606961,7.44960784 23.602381,7.44509804 23.5972035,7.44117647 C23.5948139,7.43941176 23.5922251,7.43803922 23.5898355,7.43627451 C23.5754978,7.42578431 23.5606623,7.41607843 23.5457273,7.40656863 C23.5380606,7.40166667 23.5304935,7.39656863 23.5227273,7.39205882 C23.5088874,7.38392157 23.4947489,7.37666667 23.4805108,7.36941176 C23.4708528,7.3645098 23.4612944,7.35931373 23.4515368,7.35490196 C23.4393896,7.34931373 23.4269437,7.3445098 23.4144978,7.33960784 C23.4023506,7.33470588 23.3902035,7.32970588 23.3779567,7.32539216 C23.3675022,7.32176471 23.3568485,7.31892157 23.3461948,7.31568627 C23.3319567,7.31147059 23.3177186,7.30705882 23.3032814,7.30362745 C23.2934242,7.30127451 23.2834675,7.29960784 23.2735108,7.29764706 C23.2584762,7.29460784 23.243342,7.29147059 23.2282078,7.28941176 C23.217355,7.28784314 23.2064026,7.28715686 23.1954502,7.28607843 C23.1813117,7.28470588 23.1672727,7.28303922 23.1530346,7.28245098 C23.1399913,7.28186275 23.1268485,7.28215686 23.1138052,7.28215686 C23.1017576,7.28215686 23.0898095,7.28186275 23.0777619,7.28245098 C23.0627273,7.28313725 23.0476926,7.28480392 23.032658,7.28637255 C23.0226017,7.28735294 23.0125455,7.28803922 23.0025887,7.28941176 C22.9867576,7.29166667 22.9709264,7.29490196 22.9551948,7.29803922 C22.9459351,7.29990196 22.9365758,7.30147059 22.9274156,7.30362745 C22.9124805,7.3072549 22.897645,7.31176471 22.8828095,7.31617647 C22.8727532,7.31921569 22.8625974,7.32196078 22.8526407,7.32539216 C22.8398961,7.32980392 22.8273506,7.335 22.8148052,7.34 C22.8027576,7.34480392 22.79071,7.3495098 22.778961,7.35490196 C22.7690043,7.3595098 22.7591472,7.36470588 22.74929,7.36980392 C22.7352511,7.37696078 22.7212121,7.38421569 22.7075714,7.3922549 C22.6998052,7.39686275 22.6921385,7.40196078 22.6844719,7.40686275 C22.6695368,7.41637255 22.6547013,7.42607843 22.6402641,7.43656863 C22.6378745,7.43833333 22.6353853,7.43960784 22.6329957,7.44147059 C22.6278182,7.44539216 22.6233377,7.44970588 22.6182597,7.45372549 C22.6052165,7.46401961 22.5922727,7.4745098 22.5797273,7.48568627 C22.5704675,7.49401961 22.5617056,7.50264706 22.5528442,7.51127451 C22.5435844,7.52039216 22.5343247,7.52941176 22.5254632,7.53901961 C22.5145108,7.55088235 22.5042554,7.56323529 22.4940996,7.57568627 C22.4898182,7.58088235 22.4851385,7.58568627 22.4809567,7.59098039 L6.39260606,28.4223529 L4.50122944,28.4223529 L23.1725498,4.24637255 L41.8438701,28.4223529 L41.8438701,28.4223529 Z M22.3184632,28.4223529 L8.39390476,28.4223529 L22.3184632,10.392549 L22.3184632,28.4223529 L22.3184632,28.4223529 Z" id="Shape"></path>
</svg>
