<?xml version="1.0" encoding="UTF-8"?>
<svg width="43px" height="29px" viewBox="0 0 43 29" version="1.1" xmlns="http://www.w3.org/2000/svg" xmlns:xlink="http://www.w3.org/1999/xlink">
    <!-- Generator: Sketch 42 (36781) - http://www.bohemiancoding.com/sketch -->
    <title>contact</title>
    <desc>Created with Sketch.</desc>
    <defs></defs>
    <g id="Page-1" stroke="none" stroke-width="1" fill="none" fill-rule="evenodd">
        <g id="contact">
            <g id="new-email-interface-symbol-of-black-closed-envelope">
                <g id="Capa_1">
                    <path d="M2.03124681,0.273105919 C2.3684766,0.149697819 2.72931064,0.0722741433 3.1106383,0.0722741433 L39.8161702,0.0722741433 C40.1974979,0.0722741433 40.5583319,0.149697819 40.8955617,0.273196262 L24.449617,15.5718255 C22.7754532,17.1303271 20.1519043,17.1303271 18.4771915,15.5718255 L2.03124681,0.273105919 L2.03124681,0.273105919 Z M42.4682638,27.4591153 C42.7531617,26.9952056 42.9268085,26.4564922 42.9268085,25.8741433 L42.9268085,3.14392523 C42.9268085,2.73114953 42.8415404,2.33852025 42.6916809,1.97859502 L27.3014319,16.294838 L42.4682638,27.4591153 L42.4682638,27.4591153 Z M25.9097872,17.5683988 C24.6325043,18.6489875 23.0504702,19.1970062 21.4634043,19.1970062 C19.8763383,19.1970062 18.2942128,18.6495296 17.0170213,17.5683988 L1.89309787,28.7006947 C2.26765532,28.8579813 2.67825957,28.9458847 3.1106383,28.9458847 L39.8161702,28.9458847 C40.2485489,28.9458847 40.6591532,28.8579813 41.0337106,28.7006947 L25.9097872,17.5683988 L25.9097872,17.5683988 Z M0.235219149,1.97850467 C0.0852680851,2.33852025 0,2.73105919 0,3.14392523 L0,25.8741433 C0,26.4564922 0.173555319,26.9952056 0.458544681,27.4591153 L15.6253766,16.294838 L0.235219149,1.97850467 L0.235219149,1.97850467 Z" id="Shape"></path>
                </g>
            </g>
        </g>
    </g>
</svg>
