<?xml version="1.0" encoding="UTF-8"?>
<svg width="44px" height="35px" viewBox="0 0 44 35" version="1.1" xmlns="http://www.w3.org/2000/svg" xmlns:xlink="http://www.w3.org/1999/xlink">
    <!-- Generator: Sketch 42 (36781) - http://www.bohemiancoding.com/sketch -->
    <title>daytrip</title>
    <desc>Created with Sketch.</desc>
    <defs></defs>
    <g id="Page-1" stroke="none" stroke-width="1" fill="none" fill-rule="evenodd">
        <g id="daytrip" fill="#000000">
            <g id="vacations-sunset">
                <g id="Capa_1">
                    <g id="_x35__7_">
                        <path d="M22.8561667,0.254545455 L20.6983333,0.254545455 L20.6983333,6.55727273 L22.8561667,6.55727273 L22.8561667,0.254545455 L22.8561667,0.254545455 Z M39.6018333,7.82909091 L38.0774167,6.31454545 L33.5770417,10.7659091 L35.101,12.2804545 L39.6018333,7.82909091 L39.6018333,7.82909091 Z M10.11725,10.8877273 L5.63933333,6.41454545 L4.10804167,7.92181818 L8.58595833,12.395 L10.11725,10.8877273 L10.11725,10.8877273 Z M38.46425,18.0268182 L41.2889583,16.6445455 L40.33425,14.7259091 L37.5090833,16.1077273 L38.46425,18.0268182 L38.46425,18.0268182 Z M15.9962917,7.59409091 L14.609375,4.78909091 L12.672,5.73045455 L14.0589167,8.53545455 L15.9962917,7.59409091 L15.9962917,7.59409091 Z M6.09445833,16.2845455 L3.11758333,15.2618182 L2.41083333,17.2836364 L5.38770833,18.3063636 L6.09445833,16.2845455 L6.09445833,16.2845455 Z M30.6909167,5.36454545 L28.6540833,4.65909091 L27.6155,7.60818182 L29.6523333,8.31363636 L30.6909167,5.36454545 L30.6909167,5.36454545 Z M37.2354583,23.0831818 C36.6689583,15.1154545 29.9548333,8.80363636 21.77725,8.80363636 C13.600125,8.80363636 6.886,15.1159091 6.3195,23.0831818 L0,23.0831818 L0,25.2227273 L43.7231667,25.2227273 L43.7231667,23.0831818 L37.2354583,23.0831818 L37.2354583,23.0831818 Z M8.48283333,23.0831818 C9.04429167,16.2963636 14.7904167,10.9431818 21.77725,10.9431818 C28.7645417,10.9431818 34.5102083,16.2963636 35.0716667,23.0831818 L8.48283333,23.0831818 L8.48283333,23.0831818 Z M4.87391667,30.0740909 L38.839625,30.0740909 L38.839625,27.9345455 L4.87391667,27.9345455 L4.87391667,30.0740909 L4.87391667,30.0740909 Z M9.35183333,34.9254545 L34.33925,34.9254545 L34.33925,32.7859091 L9.35183333,32.7859091 L9.35183333,34.9254545 L9.35183333,34.9254545 Z" id="Shape"></path>
                    </g>
                </g>
            </g>
        </g>
    </g>
</svg>