<?xml version="1.0" encoding="UTF-8"?>
<svg width="42px" height="42px" viewBox="0 0 42 42" version="1.1" xmlns="http://www.w3.org/2000/svg" xmlns:xlink="http://www.w3.org/1999/xlink">
    <!-- Generator: Sketch 42 (36781) - http://www.bohemiancoding.com/sketch -->
    <title>daytrips</title>
    <desc>Created with Sketch.</desc>
    <defs></defs>
    <g id="Page-1" stroke="none" stroke-width="1" fill="none" fill-rule="evenodd">
        <g id="daytrips" fill="#000000">
            <g id="haze">
                <g id="Capa_1">
                    <path d="M23.4390962,3.69707348 C23.4209231,4.78880511 22.3438654,5.673623 21.0106346,5.673623 C19.6809038,5.673623 18.6046538,4.78880511 18.5839231,3.69707348 L18.56925,3.69707348 L18.5821731,3.67640895 L18.5813654,3.67117572 C18.5813654,2.96482428 20.3973269,-0.0112715655 21.0107692,5.26339497e-16 C21.6258269,0.00684345048 23.4409808,2.96482428 23.4409808,3.67117572 L23.4409808,3.67640895 L23.4565962,3.69707348 L23.4390962,3.69707348 L23.4390962,3.69707348 Z M38.2505577,23.3146965 L38.2722308,23.3008754 L38.2790962,23.3008754 C38.9867692,23.3008754 41.9542308,21.4915208 41.9612308,20.8784281 C41.9698462,20.2653355 38.9869038,18.4567859 38.2790962,18.4567859 C38.2755962,18.4567859 38.2722308,18.4575911 38.2722308,18.4575911 L38.2505577,18.44377 L38.2505577,18.4593355 C37.1569423,18.4774505 36.2702308,19.5528115 36.2702308,20.8782939 C36.2702308,22.2063259 37.1570769,23.2808818 38.2505577,23.2989968 L38.2505577,23.3146965 L38.2505577,23.3146965 Z M3.77515385,18.4447093 L3.75348077,18.4602748 L3.74823077,18.4602748 C3.04055769,18.4602748 0.0713461538,20.2686901 0.0644807692,20.8819169 C0.0549230769,21.4942045 3.03975,23.3051693 3.74823077,23.3051693 C3.74998077,23.3051693 3.75253846,23.3034249 3.75348077,23.3034249 L3.77515385,23.3155016 L3.77515385,23.3016805 C4.87038462,23.2818211 5.75723077,22.2064601 5.75723077,20.8817827 C5.75723077,19.5537508 4.87038462,18.4809393 3.77515385,18.461885 L3.77515385,18.4447093 L3.77515385,18.4447093 Z M10.5500769,7.00863259 L10.5266538,7.00339936 C10.5258462,7.00084984 10.5231538,6.99910543 10.5223462,6.99910543 C10.0214423,6.49980192 6.6395,5.68744409 6.19917308,6.11509265 C5.75790385,6.5428754 6.58498077,9.92515016 7.08507692,10.4244537 C7.08857692,10.4261981 7.08857692,10.4261981 7.09113462,10.4279425 L7.09719231,10.4503514 L7.10580769,10.4417636 C7.89478846,11.2007157 9.28428846,11.0653227 10.2247115,10.1279042 C11.1659423,9.18874121 11.3001538,7.80555911 10.5387692,7.02070927 L10.5500769,7.00863259 L10.5500769,7.00863259 Z M34.92825,10.4504856 L34.9335,10.4280767 C34.937,10.4272716 34.93875,10.4245879 34.9403654,10.4228435 C35.4387115,9.92434505 36.2554231,6.55240256 35.8237115,6.11348243 C35.3963077,5.67536741 32.0031923,6.49805751 31.5030962,6.99749521 C31.4995962,6.99923962 31.4995962,7.00098403 31.4995962,7.00433866 L31.4761731,7.00957188 L31.4847885,7.01815974 C30.7243462,7.80461981 30.8592308,9.18874121 31.8005962,10.1261597 C32.7418269,11.0653227 34.1287692,11.1981661 34.9168077,10.4392141 L34.92825,10.4504856 L34.92825,10.4504856 Z M38.157,29.0167668 C38.157,28.5398722 37.77025,28.1543578 37.2918269,28.1543578 L5.93021154,28.1543578 C5.45178846,28.1543578 5.06503846,28.5398722 5.06503846,29.0167668 C5.06503846,29.4936613 5.45178846,29.8791757 5.93021154,29.8791757 L37.2919615,29.8791757 C37.7703846,29.8791757 38.157,29.4936613 38.157,29.0167668 L38.157,29.0167668 Z M35.3452885,33.0208562 C35.3452885,32.5439617 34.9585385,32.1584473 34.4801154,32.1584473 L2.037,32.1584473 C1.55857692,32.1584473 1.17182692,32.5439617 1.17182692,33.0208562 C1.17182692,33.4977508 1.55857692,33.8832652 2.037,33.8832652 L34.4801154,33.8832652 C34.9585385,33.8832652 35.3452885,33.4968115 35.3452885,33.0208562 L35.3452885,33.0208562 Z M39.9954423,37.0249457 C39.9954423,36.5480511 39.6086923,36.1625367 39.1302692,36.1625367 L13.8247308,36.1625367 C13.3463077,36.1625367 12.9595577,36.5480511 12.9595577,37.0249457 C12.9595577,37.5018403 13.3463077,37.8873546 13.8247308,37.8873546 L39.1304038,37.8873546 C39.6088269,37.8872204 39.9954423,37.5018403 39.9954423,37.0249457 L39.9954423,37.0249457 Z M37.9408077,41.028901 C37.9408077,40.5520064 37.5540577,40.166492 37.0756346,40.166492 L11.5536346,40.166492 C11.0752115,40.166492 10.6884615,40.5520064 10.6884615,41.028901 C10.6884615,41.5057955 11.0752115,41.8913099 11.5536346,41.8913099 L37.0756346,41.8913099 C37.5540577,41.8913099 37.9408077,41.5057955 37.9408077,41.028901 L37.9408077,41.028901 Z M21.0131923,10.2788626 C15.1484038,10.2788626 10.3770962,15.0341214 10.3770962,20.8793674 C10.3770962,21.8927348 10.5207308,22.8887923 10.8045,23.8529137 L31.2202692,23.8529137 C31.5040385,22.8895974 31.6459231,21.8944792 31.6459231,20.8793674 C31.6467308,15.0339872 26.8763654,10.2788626 21.0131923,10.2788626 L21.0131923,10.2788626 Z M21.0131923,8.55404473 C27.8426346,8.55404473 33.3770769,14.0716102 33.3770769,20.8792332 C33.3770769,22.5436677 33.0422885,24.1286645 32.4427115,25.5774633 L9.58205769,25.5774633 C8.98248077,24.1286645 8.64688462,22.5435335 8.64688462,20.8792332 C8.64675,14.0716102 14.1845577,8.55404473 21.0131923,8.55404473 L21.0131923,8.55404473 L21.0131923,8.55404473 Z" id="Shape"></path>
                </g>
            </g>
        </g>
    </g>
</svg>