<?xml version="1.0" encoding="UTF-8"?>
<svg width="67px" height="28px" viewBox="0 0 67 28" version="1.1" xmlns="http://www.w3.org/2000/svg" xmlns:xlink="http://www.w3.org/1999/xlink">
    <!-- Generator: Sketch 42 (36781) - http://www.bohemiancoding.com/sketch -->
    <title>extremefish</title>
    <desc>Created with Sketch.</desc>
    <defs></defs>
    <g id="Page-1" stroke="none" stroke-width="1" fill="none" fill-rule="evenodd">
        <g id="extremefish">
            <g id="food">
                <g id="Capa_1">
                    <g id="Group">
                        <path d="M65.3778949,15.4777013 L65.3704936,15.4777013 C64.4541661,15.4845369 63.4749929,15.4895668 62.7055219,15.4911144 C63.7676671,13.7837798 65.5413717,13.276532 65.62746,13.2529301 C65.9676581,13.1632944 66.2325452,12.8983854 66.3205812,12.5599622 C66.4086172,12.221539 66.3059085,11.8623513 66.0520584,11.6202704 C65.7796403,11.3605203 59.3128899,5.34860802 45.2632276,5.16443566 L43.4287548,0.609264891 C43.2656675,0.204034094 42.8493793,-0.0423028968 42.4132245,0.00748039028 C42.2884419,0.0217963096 39.3143055,0.366152207 35.4713654,1.18332036 C30.2754237,2.28822559 26.1949942,3.66900246 23.3435627,5.28747518 C23.0131031,5.47500083 22.7028996,5.91673077 22.9164973,6.54418075 C22.9483097,6.6378146 22.9934963,6.74602231 23.0586793,6.88505439 C23.1477541,7.07515949 23.2778604,7.32897687 23.4453625,7.63979998 C23.4792524,7.70273844 23.5134021,7.76541895 23.5470324,7.82706768 C18.3954982,8.84504562 14.1535395,9.85954131 12.6993874,10.2155047 L10.2487924,7.78141151 C8.56442229,6.1085125 6.43221121,5.01856805 4.08276676,4.62958775 L1.13395039,4.14129883 C0.814917286,4.08842021 0.48978139,4.19662792 0.267094464,4.43006769 C0.0444075385,4.66337848 -0.0470044706,4.99148387 0.0232425421,5.30527335 L2.05378373,14.3814372 L0.0232425421,23.4576011 C-0.0470044706,23.7715196 0.0444075385,24.099496 0.267094464,24.3328068 C0.452515414,24.527168 0.70883261,24.6347308 0.973849529,24.6347308 C1.02708664,24.6347308 1.08058344,24.6304747 1.13395039,24.6215756 L4.08289661,24.1334157 C6.43247091,23.7444354 8.56455214,22.6546199 10.2489223,20.9815919 L12.6995172,18.5476277 C14.1866504,18.9115874 18.5885801,19.9643878 23.8980077,21.0053228 C24.9267824,21.2069065 25.9294579,21.3964957 26.907852,21.5748643 L26.0721593,23.234995 C25.8553154,23.6656334 25.9904858,24.1892607 26.3892447,24.4630688 C26.5380489,24.5652148 30.0785762,26.9745453 34.0347426,27.7135563 C34.0644774,27.7191021 34.1255053,27.7281301 34.2058804,27.7281301 C34.4392147,27.7281301 34.835117,27.6512627 35.0945505,27.1869626 C35.1141574,27.1518821 35.1419446,27.1001643 35.1764837,27.0342595 C35.2368624,26.9190872 35.3215224,26.7541317 35.4220237,26.5560304 C35.6191308,26.1678239 35.8789539,25.6496134 36.1376083,25.131274 C36.5816837,24.2416234 37.0219935,23.3531336 37.1363884,23.1220153 C39.9861318,23.4417375 42.4806149,23.6030818 44.6020487,23.6030818 C59.1101993,23.6030818 65.7752255,17.4067392 66.0519286,17.142862 C66.3396687,16.868538 66.4299121,16.4477016 66.2795497,16.0807756 C66.1304858,15.7159131 65.7737972,15.4777013 65.3778949,15.4777013 L65.3778949,15.4777013 Z M41.9011095,2.02421941 L43.172957,5.18262074 C38.6864971,5.31933132 32.7754902,6.07614047 25.5558892,7.43873225 C25.3860498,7.13809794 25.2134837,6.82430847 25.0720807,6.55746489 C30.6262692,3.72575025 39.3333929,2.37489494 41.9011095,2.02421941 L41.9011095,2.02421941 Z M8.87176921,19.6137123 C7.47604806,20.999906 5.70948502,21.9029697 3.76269489,22.2252713 L2.23751668,22.477799 L4.00187233,14.591533 C4.03277582,14.4534038 4.03277582,14.3099866 4.00187233,14.1718573 L2.23751668,6.28559139 L3.76269489,6.53811905 C5.70948502,6.8604207 7.47604806,7.76335539 8.87176921,9.14967807 L11.4265011,11.6868201 L11.4265011,13.4142744 L7.20648651,13.4142744 C6.66866188,13.4142744 6.23263698,13.8473632 6.23263698,14.3815662 C6.23263698,14.9157693 6.66866188,15.3488581 7.20648651,15.3488581 L11.4265011,15.3488581 L11.4265011,17.0763123 L8.87176921,19.6137123 L8.87176921,19.6137123 Z M33.6954534,25.661092 C31.3913254,25.0974832 29.2692424,23.9519517 28.2077464,23.3181821 L28.8529541,22.0364559 C28.870873,22.0007306 28.8856755,21.9643605 28.8989198,21.9276034 C31.1026764,22.3066528 33.1678866,22.6221189 35.089097,22.8729699 C34.6095735,23.83923 34.0421438,24.9768942 33.6954534,25.661092 L33.6954534,25.661092 Z M13.3742002,16.719833 L13.3742002,15.1383753 C16.6589297,14.3402951 30.2999647,11.134303 40.5212297,10.3602116 C41.0574961,10.3197143 41.4591117,9.85489831 41.41821,9.32224293 C41.3773083,8.78958756 40.9103799,8.39016051 40.3730747,8.43130266 C34.1953628,8.89908499 26.8518881,10.2376879 21.7793007,11.278107 C18.0598447,12.0411069 14.9840384,12.7596112 13.3742002,13.1470439 L13.3742002,12.0431704 C17.1215732,11.1330133 34.330663,7.09463429 44.6023084,7.09463429 C48.3205958,7.09463429 51.4798935,7.53133432 54.0802016,8.14034127 C53.8384272,8.45000363 53.6174283,8.77191836 53.4149974,9.10363497 C52.6148826,8.94125892 51.7963297,8.80080814 50.9718037,8.68537798 C50.4386536,8.61096099 49.9465349,8.97917676 49.8714836,9.50809194 C49.7964323,10.0371361 50.1672742,10.5263278 50.6999049,10.6008738 C51.3217403,10.68793 51.9386415,10.7914948 52.546843,10.906667 C52.1483438,12.0044787 51.9386415,13.174386 51.9386415,14.3813083 C51.9386415,16.6785619 52.6911026,18.843619 54.0821493,20.6251127 C51.442238,21.2448243 48.2908609,21.6682402 44.6023084,21.6682402 C34.3333897,21.6683692 17.1219627,17.6299902 13.3742002,16.719833 L13.3742002,16.719833 Z M56.1641097,20.0682105 C54.6922985,18.5191248 53.8863406,16.5205709 53.8863406,14.3814372 C53.8863406,13.1346625 54.1618751,11.9363814 54.6812615,10.845921 C54.7859179,10.7280404 54.8639557,10.5838494 54.9012216,10.4196678 C54.9016112,10.4178622 54.901741,10.4160566 54.9021306,10.4142509 C55.2421988,9.79750566 55.6642003,9.22074177 56.1632008,8.69556679 C57.6168335,9.13265373 58.8441436,9.60907721 59.8416252,10.0571268 C61.4862623,10.7960088 62.706301,11.5400497 63.5129081,12.0969518 C62.3672715,12.7743141 60.9262339,14.0178645 60.2881677,16.1727328 C60.2014302,16.4662736 60.2598611,16.7836743 60.4454119,17.0279477 C60.744189,17.4213131 61.0071283,17.4222159 61.8781394,17.4253112 C62.0120112,17.4258271 62.1605557,17.4258271 62.3193581,17.4259561 C60.9140283,18.2551187 58.8730994,19.2501395 56.1641097,20.0682105 L56.1641097,20.0682105 Z" id="Shape"></path>
                        <path d="M46.7224438,8.30078274 C46.0267257,8.27060324 45.3133484,8.25525554 44.6023084,8.25525554 C44.0644838,8.25525554 43.6284589,8.68834434 43.6284589,9.22254739 C43.6284589,9.75675043 44.0644838,10.1898392 44.6023084,10.1898392 C45.2850419,10.1898392 45.969723,10.2045421 46.6372644,10.2335608 C46.6518072,10.2342057 46.6662202,10.2344636 46.6805033,10.2344636 C47.1987211,10.2344636 47.6298118,9.82871694 47.6526648,9.30934571 C47.6762969,8.77565855 47.259749,8.32412672 46.7224438,8.30078274 L46.7224438,8.30078274 Z" id="Shape"></path>
                        <path d="M58.1063552,11.3505894 C57.8505574,11.3505894 57.598655,11.4537672 57.4181682,11.6343284 C57.236383,11.8135998 57.1325057,12.063806 57.1325057,12.3178813 C57.1325057,12.5719566 57.236383,12.8221628 57.4181682,13.0014342 C57.598655,13.1819953 57.8505574,13.2851731 58.1063552,13.2851731 C58.362153,13.2851731 58.6140554,13.1819953 58.7945422,13.0014342 C58.9763275,12.8221628 59.0802047,12.5732463 59.0802047,12.3178813 C59.0802047,12.0625162 58.9763275,11.8135998 58.7945422,11.6343284 C58.6140554,11.4537672 58.362153,11.3505894 58.1063552,11.3505894 L58.1063552,11.3505894 Z" id="Shape"></path>
                    </g>
                </g>
            </g>
        </g>
    </g>
</svg>
