<?xml version="1.0" encoding="UTF-8"?>
<svg viewBox="0 0 39 39" version="1.1" xmlns="http://www.w3.org/2000/svg" preserveAspectRatio="xMidYMid meet" xmlns:xlink="http://www.w3.org/1999/xlink">
                    <path d="M39,6.50043333 C39,3.0849 35.9164,0 32.5,0 L6.5,0 C3.0836,0 0,3.0849 0,6.50043333 L0,32.4995667 C0,35.9151 3.0836,39 6.50043333,39 L19.5,39 L19.5,24.2666667 L14.7333333,24.2666667 L14.7333333,17.7666667 L19.5,17.7666667 L19.5,15.2342667 C19.5,10.8667 22.7794667,6.93333333 26.8125,6.93333333 L32.0666667,6.93333333 L32.0666667,13.4333333 L26.8125,13.4333333 C26.2374667,13.4333333 25.5666667,14.1314333 25.5666667,15.1770667 L25.5666667,17.7666667 L32.0666667,17.7666667 L32.0666667,24.2666667 L25.5666667,24.2666667 L25.5666667,39 L32.5,39 C35.9164,39 39,35.9151 39,32.4995667 L39,6.50043333 L39,6.50043333 Z" id="Facebook__x28_alt_x29_"></path>
</svg>
