<?xml version="1.0" encoding="UTF-8"?>
<svg width="41px" height="41px" viewBox="0 0 41 41" version="1.1" xmlns="http://www.w3.org/2000/svg" xmlns:xlink="http://www.w3.org/1999/xlink">
    <!-- Generator: Sketch 42 (36781) - http://www.bohemiancoding.com/sketch -->
    <title>faqs</title>
    <desc>Created with Sketch.</desc>
    <defs></defs>
    <g id="Page-1" stroke="none" stroke-width="1" fill="none" fill-rule="evenodd">
        <g id="faqs">
            <g id="circle">
                <g id="Capa_1">
                    <path d="M20.4690326,0 C9.16293148,0 0,9.16293148 0,20.4690326 C0,31.7751338 9.16293148,40.9380653 20.4690326,40.9380653 C31.7751338,40.9380653 40.9380653,31.7751338 40.9380653,20.4690326 C40.9380653,9.16293148 31.7205563,0 20.4690326,0 L20.4690326,0 Z M20.4690326,38.9536786 C10.2890604,38.9536786 1.98438662,30.6490049 1.98438662,20.4690326 C1.98438662,10.2890604 10.2345498,1.98438662 20.4690326,1.98438662 C30.7035155,1.98438662 38.9536786,10.2890604 38.9536786,20.4690326 C38.9536786,30.6490049 30.6490049,38.9536786 20.4690326,38.9536786 L20.4690326,38.9536786 Z M21.3272904,30.3810669 C21.3272904,30.9714535 20.8460587,31.4526183 20.255739,31.4526183 C19.6653524,31.4526183 19.1841876,30.9713866 19.1841876,30.3810669 C19.1841876,29.7906803 19.6654192,29.3095155 20.255739,29.3095155 C20.8411093,29.3095155 21.3272904,29.7907471 21.3272904,30.3810669 L21.3272904,30.3810669 Z M25.7723458,15.8057341 C25.7723458,17.6809657 24.7007945,19.3974812 22.7164078,20.5732382 C21.2678303,21.4314959 21.3223409,22.4484698 21.3223409,22.5030473 L21.3223409,22.6122023 L21.3223409,25.0778206 C21.3223409,25.6136297 20.8956868,26.0402838 20.3598777,26.0402838 C19.8240685,26.0402838 19.3429038,25.6136297 19.3429038,25.0778206 L19.3429038,22.6667798 C19.2883263,21.808522 19.7199299,20.146584 21.6447896,18.9708271 C22.6072529,18.3804405 23.7333817,17.3634666 23.7333817,15.865261 C23.7333817,14.0446069 22.2351762,12.541385 20.4095057,12.541385 C18.5838352,12.541385 17.0856297,14.0395905 17.0856297,15.865261 C17.0856297,16.4010701 16.6589755,16.8277243 16.1231664,16.8277243 C15.5873573,16.8277243 15.1607031,16.4010701 15.1607031,15.865261 C15.1607031,12.9184111 17.5171664,10.5619478 20.4640163,10.5619478 C23.4108662,10.5619478 25.7723458,12.8588842 25.7723458,15.8057341 L25.7723458,15.8057341 Z" id="Shape"></path>
                </g>
            </g>
        </g>
    </g>
</svg>
