<?xml version="1.0" encoding="utf-8"?>
<svg  xmlns="http://www.w3.org/2000/svg" xmlns:xlink="http://www.w3.org/1999/xlink" x="0px" y="0px"
	viewBox="0 0 1970 500" enable-background="new 0 0 1970 500" xml:space="preserve">
<path fill="none" stroke="#4565D8" stroke-width="163" stroke-miterlimit="10" d="M1970,418.5c-98.499,0-98.499-14-196.998-14
	c-98.5,0-98.5,14-196.999,14c-98.5,0-98.5-14-196.999-14c-98.5,0-98.5,14-197,14c-98.498,0-98.498-14-196.995-14
	c-98.499,0-98.499,14-196.998,14c-98.5,0-98.5-14-197-14c-98.5,0-98.5,14-196.999,14c-98.503,0-98.503-14-197.007-14
	c-98.504,0-98.504,14-197.008,14"/>
<path fill="none" stroke="#3C5CB5" stroke-width="163" stroke-miterlimit="10" d="M1970,256.5c-98.499,0-98.499-14-196.998-14
	c-98.5,0-98.5,14-196.999,14c-98.5,0-98.5-14-196.999-14c-98.5,0-98.5,14-197,14c-98.498,0-98.498-14-196.995-14
	c-98.499,0-98.499,14-196.998,14c-98.5,0-98.5-14-197-14c-98.5,0-98.5,14-196.999,14c-98.503,0-98.503-14-197.007-14
	c-98.504,0-98.504,14-197.008,14"/>
<path fill="none" stroke="#2F4B89" stroke-width="163" stroke-miterlimit="10" d="M1970,95.5c-98.499,0-98.499-14-196.998-14
	c-98.5,0-98.5,14-196.999,14c-98.5,0-98.5-14-196.999-14c-98.5,0-98.5,14-197,14c-98.498,0-98.498-14-196.995-14
	c-98.499,0-98.499,14-196.998,14c-98.5,0-98.5-14-197-14c-98.5,0-98.5,14-196.999,14c-98.503,0-98.503-14-197.007-14
	c-98.504,0-98.504,14-197.008,14"/>
</svg>
