<?xml version="1.0" encoding="UTF-8"?>
<svg width="36px" height="39px" viewBox="0 0 36 39" version="1.1" xmlns="http://www.w3.org/2000/svg" xmlns:xlink="http://www.w3.org/1999/xlink">
    <!-- Generator: Sketch 42 (36781) - http://www.bohemiancoding.com/sketch -->
    <title>hike-difficulty</title>
    <desc>Created with Sketch.</desc>
    <defs></defs>
    <g id="Page-1" stroke="none" stroke-width="1" fill="none" fill-rule="evenodd">
        <g id="hike-difficulty" >
            <g id="coverage-level">
                <g id="Capa_1">
                    <g id="Group">
                        <path d="M1.71567555,31.5994691 C0.7938838,31.5994691 0.0467304625,32.3365267 0.0467304625,33.2452747 L0.0467304625,37.0239129 C0.0467304625,37.932661 0.7938838,38.6697186 1.71567555,38.6697186 C2.63733379,38.6697186 3.38462064,37.932661 3.38462064,37.0239129 L3.38462064,33.2452747 C3.38462064,32.3365267 2.63720027,31.5994691 1.71567555,31.5994691 L1.71567555,31.5994691 Z" id="Shape"></path>
                        <path d="M9.72661198,23.6996018 C8.80495375,23.6996018 8.05766689,24.4366594 8.05766689,25.3454075 L8.05766689,37.0239129 C8.05766689,37.932661 8.80495375,38.6697186 9.72661198,38.6697186 C10.6482702,38.6697186 11.3955571,37.932661 11.3955571,37.0239129 L11.3955571,25.3454075 C11.3955571,24.4366594 10.6481367,23.6996018 9.72661198,23.6996018 L9.72661198,23.6996018 Z" id="Shape"></path>
                        <path d="M17.7375484,15.7997345 C16.8158902,15.7997345 16.0686033,16.5366605 16.0686033,17.4455402 L16.0686033,37.0240446 C16.0686033,37.9329243 16.8158902,38.6697186 17.7375484,38.6697186 C18.6590731,38.6697186 19.4064935,37.9329243 19.4064935,37.0240446 L19.4064935,17.4455402 C19.4064935,16.5366605 18.6590731,15.7997345 17.7375484,15.7997345 L17.7375484,15.7997345 Z" id="Shape"></path>
                        <path d="M25.7484848,7.89986726 C24.8268266,7.89986726 24.0795398,8.63679322 24.0795398,9.54567294 L24.0795398,37.0240446 C24.0795398,37.9329243 24.8268266,38.6697186 25.7484848,38.6697186 C26.6701431,38.6697186 27.4174299,37.9329243 27.4174299,37.0240446 L27.4174299,9.54567294 C27.4174299,8.63679322 26.6701431,7.89986726 25.7484848,7.89986726 L25.7484848,7.89986726 Z" id="Shape"></path>
                        <path d="M33.7594213,0 C32.837763,0 32.0904762,0.736925951 32.0904762,1.64580568 L32.0904762,37.0240446 C32.0904762,37.9329243 32.837763,38.6697186 33.7594213,38.6697186 C34.6810795,38.6697186 35.4283664,37.9329243 35.4283664,37.0240446 L35.4283664,1.64580568 C35.4283664,0.736925951 34.6810795,0 33.7594213,0 L33.7594213,0 Z" id="Shape"></path>
                    </g>
                </g>
            </g>
        </g>
    </g>
</svg>
