<?xml version="1.0" encoding="UTF-8"?>
<svg width="45px" height="45px" viewBox="0 0 45 45" version="1.1" xmlns="http://www.w3.org/2000/svg" xmlns:xlink="http://www.w3.org/1999/xlink">
    <!-- Generator: Sketch 42 (36781) - http://www.bohemiancoding.com/sketch -->
    <title>hike-length</title>
    <desc>Created with Sketch.</desc>
    <defs></defs>
    <g id="Page-1" stroke="none" stroke-width="1" fill="none" fill-rule="evenodd">
        <g id="hike-length">
            <g id="distance">
                <g id="Group">
                    <path d="M40.9903259,33.003055 L23.7876782,28.503055 L38.9831976,25.3961303 L38.5982688,23.398167 L19.2968432,27.4032587 C18.1053971,27.6598778 18.435336,29.3187373 19.2968432,29.401222 L34.7764766,33.5071283 L17.1980652,34.7077393 C16.2357434,34.8452138 16.043279,35.9266802 16.6206721,36.5132383 L22.357943,41.9205703 L9.8385947,42.9195519 L9.9302444,44.9175153 L24.5483707,43.7169043 C25.2540733,43.7718941 25.9139511,42.6904277 25.1257637,41.9114053 L19.4893075,36.5040733 L40.8895112,35.0010183 C41.9434827,34.9551935 42.0626273,33.296334 40.9903259,33.003055 L40.9903259,33.003055 Z" id="Shape"></path>
                    <path d="M42.2367617,7.49694501 C42.2367617,5.00407332 40.2296334,2.98778004 37.7459267,2.98778004 C35.26222,2.98778004 33.2550916,5.00407332 33.2550916,7.49694501 C33.2550916,9.9898167 35.26222,12.00611 37.7459267,12.00611 C40.1379837,12.00611 42.2367617,9.9898167 42.2367617,7.49694501 L42.2367617,7.49694501 Z M35.1705703,7.5885947 C35.1705703,6.1496945 36.3161914,4.99490835 37.7459267,4.99490835 C39.0840122,4.99490835 40.3212831,6.04887984 40.3212831,7.48778004 C40.3212831,8.92668024 39.1756619,10.0814664 37.7459267,10.0814664 C36.3161914,10.0814664 35.1705703,9.02749491 35.1705703,7.5885947 L35.1705703,7.5885947 Z" id="Shape"></path>
                    <path d="M44.9129328,7.20366599 C44.9129328,3.17107943 41.6685336,0 37.7459267,0 C33.8324847,0 30.5789206,3.17107943 30.5789206,7.20366599 C30.5789206,11.2270876 37.7459267,21.9867617 37.7459267,21.9867617 C37.7459267,21.9867617 44.9129328,11.2270876 44.9129328,7.20366599 L44.9129328,7.20366599 Z M37.7459267,1.92464358 C40.7062118,1.92464358 42.9974542,4.32586558 42.9974542,7.20366599 C42.9974542,9.50407332 39.6522403,15.2688391 37.7459267,18.4399185 C35.839613,15.2688391 32.4943992,9.51323829 32.4943992,7.20366599 C32.4943992,4.32586558 34.7856415,1.92464358 37.7459267,1.92464358 L37.7459267,1.92464358 Z" id="Shape"></path>
                    <path d="M7.17158859,24.7362525 C4.68788187,24.7362525 2.68075356,26.7525458 2.68075356,29.2454175 C2.68075356,31.7382892 4.68788187,33.7545825 7.17158859,33.7545825 C9.56364562,33.7545825 11.6624236,31.7382892 11.6624236,29.2454175 C11.6624236,26.7525458 9.65529532,24.7362525 7.17158859,24.7362525 L7.17158859,24.7362525 Z M7.17158859,31.8482688 C5.74185336,31.8482688 4.59623218,30.7942974 4.59623218,29.3553971 C4.59623218,27.9164969 5.74185336,26.7617108 7.17158859,26.7617108 C8.50967413,26.7617108 9.74694501,27.8156823 9.74694501,29.2545825 C9.74694501,30.6934827 8.60132383,31.8482688 7.17158859,31.8482688 L7.17158859,31.8482688 Z" id="Shape"></path>
                    <path d="M7.17158859,21.7668024 C3.25814664,21.7668024 0.00458248473,24.9378819 0.00458248473,28.9704684 C0.00458248473,32.99389 7.17158859,43.7535642 7.17158859,43.7535642 C7.17158859,43.7535642 14.3385947,32.99389 14.3385947,28.9704684 C14.3385947,24.9287169 11.0850305,21.7668024 7.17158859,21.7668024 L7.17158859,21.7668024 Z M1.9200611,28.9613035 C1.9200611,26.0835031 4.21130346,23.6822811 7.17158859,23.6822811 C10.1318737,23.6822811 12.4231161,26.0835031 12.4231161,28.9613035 C12.4231161,31.2617108 9.07790224,37.0264766 7.17158859,40.197556 C5.25610998,37.0264766 1.9200611,31.2708758 1.9200611,28.9613035 L1.9200611,28.9613035 Z" id="Shape"></path>
                </g>
            </g>
        </g>
    </g>
</svg>
