<?xml version="1.0" encoding="UTF-8"?>
<svg width="37px" height="44px" viewBox="0 0 37 44" version="1.1" xmlns="http://www.w3.org/2000/svg" xmlns:xlink="http://www.w3.org/1999/xlink">
    <!-- Generator: Sketch 42 (36781) - http://www.bohemiancoding.com/sketch -->
    <title>hike-time</title>
    <desc>Created with Sketch.</desc>
    <defs></defs>
    <g id="Page-1" stroke="none" stroke-width="1" fill="none" fill-rule="evenodd">
        <g id="hike-time">
            <g id="stopwatch">
                <g id="Layer_1">
                    <g id="Group">
                        <path d="M29.9874472,11.2342177 L31.9532602,8.2294966 C32.1797724,7.88318367 32.0815569,7.41983673 31.7335163,7.19414966 L28.4922561,5.09292517 C28.1428618,4.86663946 27.6773537,4.96661224 27.4515935,5.31142857 L25.349813,8.52178231 C23.9860772,7.97013605 22.5727073,7.58790476 21.1224878,7.37748299 L21.1224878,4.19047619 L21.4145772,4.19047619 C21.83,4.19047619 22.1666098,3.85538776 22.1666098,3.44217687 L22.1666098,0.74829932 C22.1666098,0.335088435 21.83,0 21.4145772,0 L15.4577276,0 C15.0423049,0 14.7056951,0.335088435 14.7056951,0.74829932 L14.7056951,3.44217687 C14.7056951,3.85538776 15.0423049,4.19047619 15.4577276,4.19047619 L15.7498171,4.19047619 L15.7498171,7.37763265 C14.2991463,7.58805442 12.885626,7.97028571 11.5223415,8.52178231 L9.42071138,5.31157823 C9.19480081,4.96631293 8.72884146,4.86678912 8.38004878,5.09307483 L5.13878862,7.19429932 C4.79089837,7.41983673 4.69253252,7.88333333 4.91904472,8.22964626 L6.88500813,11.2343673 C2.69077236,14.5922857 0.00075203252,19.7429796 0.00075203252,25.5276327 C0.00075203252,35.6432925 8.27070325,43.8729388 18.4360772,43.8729388 C28.6014512,43.8729388 36.8714024,35.6432925 36.8714024,25.5276327 C36.8717033,19.8568707 34.272378,14.6644218 29.9874472,11.2342177 L29.9874472,11.2342177 Z M28.3013902,6.7554966 L30.2826951,8.03987755 L28.7769756,10.3411973 C28.1371463,9.90912925 27.4151951,9.48843537 26.7359593,9.1467619 L28.3013902,6.7554966 L28.3013902,6.7554966 Z M16.2099106,1.49659864 L20.6626951,1.49659864 L20.6626951,2.69387755 L16.2099106,2.69387755 L16.2099106,1.49659864 L16.2099106,1.49659864 Z M19.6185732,4.19047619 L19.6185732,7.18367347 L17.2540325,7.18367347 L17.2540325,4.19047619 L19.6185732,4.19047619 L19.6185732,4.19047619 Z M6.58991057,8.03987755 L8.57106504,6.7554966 L10.1364959,9.1467619 C9.41785366,9.50834014 8.6858252,9.94265306 8.09563008,10.3411973 L6.58991057,8.03987755 L6.58991057,8.03987755 Z M18.436378,42.3761905 C9.10049593,42.3761905 1.50511789,34.8179184 1.50511789,25.527483 C1.50496748,16.1864626 9.12531301,8.68027211 18.436378,8.68027211 C25.2792724,8.68027211 31.1824268,12.7288707 33.8456748,18.537619 C33.8456748,18.537619 35.3676382,21.4624218 35.3676382,25.527483 C35.3676382,34.8179184 27.7721098,42.3761905 18.436378,42.3761905 L18.436378,42.3761905 Z" id="Shape"></path>
                        <path d="M19.1884106,23.3611565 L19.1884106,19.4062449 C19.1884106,18.993034 18.8518008,18.6579456 18.436378,18.6579456 C18.0209553,18.6579456 17.6843455,18.993034 17.6843455,19.4062449 L17.6843455,23.3611565 C16.7813049,23.672449 16.1301951,24.5250612 16.1301951,25.5282313 C16.1301951,26.7936054 17.1646911,27.822966 18.436378,27.822966 C19.708065,27.822966 20.742561,26.7936054 20.742561,25.5282313 C20.742561,24.5250612 20.0913008,23.672449 19.1884106,23.3611565 L19.1884106,23.3611565 Z M18.436378,26.3263673 C17.9941829,26.3263673 17.6342602,25.9682313 17.6342602,25.5282313 C17.6342602,25.0880816 17.9941829,24.7300952 18.436378,24.7300952 C18.8785732,24.7300952 19.2384959,25.0882313 19.2384959,25.5282313 C19.2384959,25.9682313 18.8785732,26.3263673 18.436378,26.3263673 L18.436378,26.3263673 Z" id="Shape"></path>
                        <path d="M28.8751911,15.2516871 C28.8586463,15.2313333 28.8442073,15.2096327 28.8251057,15.1906259 C28.8060041,15.171619 28.7843455,15.1574014 28.7638902,15.1407891 C26.1081626,12.525932 22.4585488,10.9085578 18.4362276,10.9085578 C14.4139065,10.9085578 10.7642927,12.5260816 8.10856504,15.1409388 C8.08810976,15.1574014 8.06645122,15.1717687 8.04734959,15.1907755 C8.02824797,15.2097823 8.01380894,15.2313333 7.99726423,15.2518367 C2.32919512,20.952381 2.32438211,30.0973469 7.99636179,35.8034286 C8.01320732,35.824381 8.02809756,35.846381 8.0475,35.8658367 C8.06690244,35.8851429 8.0890122,35.8998095 8.11006911,35.9167211 C13.8369472,41.5545578 23.0266341,41.5638367 28.7628374,35.9167211 C28.7837439,35.8999592 28.8058537,35.8852925 28.8254065,35.8658367 C28.8449593,35.846381 28.8596992,35.824381 28.8765447,35.8034286 C31.5017398,33.162381 33.1259797,29.5341769 33.1280854,25.5351156 C33.1280854,25.5328707 33.128687,25.5306259 33.128687,25.528381 C33.128687,25.5259864 33.127935,25.5238912 33.127935,25.5216463 C33.1261301,21.5218367 31.501439,17.8928844 28.8751911,15.2516871 L28.8751911,15.2516871 Z M30.9201179,26.2765306 L31.602061,26.2765306 C31.4284919,29.3321361 30.1996707,32.1110204 28.2734146,34.2580408 L27.7954228,33.7824218 C27.5019797,33.4902857 27.0254919,33.4902857 26.7320488,33.7824218 C26.4383049,34.0747075 26.4383049,34.5485306 26.7320488,34.8406667 L27.2100407,35.3162857 C25.0523089,37.2335782 22.2594106,38.4565986 19.188561,38.6293061 L19.188561,37.9498503 C19.188561,37.5366395 18.8519512,37.201551 18.4365285,37.201551 C18.0211057,37.201551 17.6844959,37.5366395 17.6844959,37.9498503 L17.6844959,38.6293061 C14.6136463,38.4565986 11.820748,37.2335782 9.66301626,35.3162857 L10.1410081,34.8406667 C10.434752,34.548381 10.434752,34.0745578 10.1410081,33.7824218 C9.84756504,33.4902857 9.37107724,33.4902857 9.07763415,33.7824218 L8.59964228,34.2580408 C6.67338618,32.1108707 5.44456504,29.3319864 5.27099593,26.2765306 L5.95293902,26.2765306 C6.36836179,26.2765306 6.70497154,25.9414422 6.70497154,25.5282313 C6.70497154,25.1150204 6.36836179,24.779932 5.95293902,24.779932 L5.27099593,24.779932 C5.44441463,21.7243265 6.67323577,18.9452925 8.59964228,16.7981224 L9.07763415,17.2737415 C9.37122764,17.5660272 9.84756504,17.5658776 10.1410081,17.2737415 C10.434752,16.9814558 10.434752,16.5076327 10.1410081,16.2154966 L9.66301626,15.7398776 C11.820748,13.8227347 14.6136463,12.5998639 17.6846463,12.4271565 L17.6846463,13.1064626 C17.6846463,13.5196735 18.0212561,13.8547619 18.4366789,13.8547619 C18.8521016,13.8547619 19.1887114,13.5196735 19.1887114,13.1064626 L19.1887114,12.4271565 C22.259561,12.5998639 25.0524593,13.8227347 27.2103415,15.7398776 L26.7323496,16.2154966 C26.4386057,16.5077823 26.4386057,16.9816054 26.7323496,17.2737415 C27.0259431,17.5660272 27.5022805,17.5658776 27.7957236,17.2737415 L28.2738659,16.7981224 C30.2002724,18.9452925 31.4292439,21.7243265 31.6025122,24.779932 L30.9205691,24.779932 C30.5051463,24.779932 30.1685366,25.1150204 30.1685366,25.5282313 C30.1685366,25.9414422 30.5045447,26.2765306 30.9201179,26.2765306 L30.9201179,26.2765306 Z" id="Shape"></path>
                    </g>
                </g>
            </g>
        </g>
    </g>
</svg>
