
<svg viewBox="0 0 37 37" version="1.1" xmlns="http://www.w3.org/2000/svg" xmlns:xlink="http://www.w3.org/1999/xlink">
                    <path d="M4.71976531,0 L32.0518163,0 C34.6474796,0 36.7712041,1.92173469 36.7712041,4.71938776 L36.7712041,32.0521939 C36.7712041,34.8498469 34.6474796,36.7715816 32.0518163,36.7715816 L4.71976531,36.7715816 C2.12334694,36.7715816 0,34.8498469 0,32.0521939 L0,4.71938776 C0,1.92173469 2.12334694,0 4.71976531,0 L4.71976531,0 L4.71976531,0 Z M26.7864898,4.08547959 C25.8758367,4.08547959 25.1316837,4.8300102 25.1316837,5.74104082 L25.1316837,9.70343878 C25.1316837,10.6140918 25.8758367,11.359 26.7864898,11.359 L30.9425714,11.359 C31.8532245,11.359 32.5981327,10.6140918 32.5981327,9.70343878 L32.5981327,5.74104082 C32.5981327,4.8300102 31.8532245,4.08547959 30.9425714,4.08547959 L26.7864898,4.08547959 L26.7864898,4.08547959 L26.7864898,4.08547959 Z M32.6155,15.5505714 L29.3791327,15.5505714 C29.6853265,16.5503265 29.8510714,17.6093571 29.8510714,18.7050102 C29.8510714,24.8213367 24.7329898,29.7793367 18.4207143,29.7793367 C12.1088163,29.7793367 6.9914898,24.8213367 6.9914898,18.7050102 C6.9914898,17.608602 7.15685714,16.549949 7.46342857,15.5505714 L4.08623469,15.5505714 L4.08623469,31.083398 C4.08623469,31.8872041 4.74392857,32.5452755 5.54811224,32.5452755 L31.1543776,32.5452755 C31.9585612,32.5452755 32.6162551,31.8875816 32.6162551,31.083398 L32.6162551,15.5505714 L32.6155,15.5505714 L32.6155,15.5505714 Z M18.4203367,11.1502143 C14.3420306,11.1502143 11.0354388,14.3537347 11.0354388,18.3059388 C11.0354388,22.2581429 14.3420306,25.4616633 18.4203367,25.4616633 C22.4990204,25.4616633 25.8059898,22.2581429 25.8059898,18.3059388 C25.8059898,14.3537347 22.499398,11.1502143 18.4203367,11.1502143 L18.4203367,11.1502143 Z" id="Shape"></path>
</svg>
