<?xml version="1.0" encoding="UTF-8"?>
<svg width="34px" height="44px" viewBox="0 0 34 44" version="1.1" xmlns="http://www.w3.org/2000/svg" xmlns:xlink="http://www.w3.org/1999/xlink">
    <!-- Generator: Sketch 42 (36781) - http://www.bohemiancoding.com/sketch -->
    <title>itinerary</title>
    <desc>Created with Sketch.</desc>
    <defs></defs>
    <g id="Page-1" stroke="none" stroke-width="1" fill="none" fill-rule="evenodd">
        <g id="itinerary" fill="#000000">
            <g id="list">
                <g id="Capa_1">
                    <path d="M22.386006,25.3497788 C22.7783761,25.3497788 23.0964537,25.6675115 23.0964537,26.0594562 C23.0964537,26.4514009 22.7783761,26.7691336 22.386006,26.7691336 L16.2733134,26.7691336 C15.8809433,26.7691336 15.5628657,26.4514009 15.5628657,26.0594562 C15.5628657,25.6675115 15.8809433,25.3497788 16.2733134,25.3497788 L22.386006,25.3497788 L22.386006,25.3497788 Z M26.3296,22.8611429 C26.3296,22.4691982 26.0115224,22.1514654 25.6191522,22.1514654 L16.2733134,22.1514654 C15.8809433,22.1514654 15.5628657,22.4691982 15.5628657,22.8611429 C15.5628657,23.2530876 15.8809433,23.5708203 16.2733134,23.5708203 L25.6191522,23.5708203 C26.0115224,23.5708203 26.3296,23.2530876 26.3296,22.8611429 L26.3296,22.8611429 Z M10.9821015,6.60871889 L10.9821015,3.46454378 C10.9821015,3.07259908 11.3001791,2.75486636 11.6925493,2.75486636 L14.2699522,2.75334562 C14.2699522,1.23524424 15.5064358,0 17.0263881,0 C18.5464418,0 19.7830269,1.23524424 19.7830269,2.75334562 L19.7830269,2.75486636 L22.3602269,2.75486636 C22.752597,2.75486636 23.0706746,3.07259908 23.0706746,3.46454378 L23.0706746,6.60871889 C23.0706746,7.00066359 22.752597,7.31839631 22.3602269,7.31839631 L11.6925493,7.31839631 C11.3001791,7.31839631 10.9821015,7.00066359 10.9821015,6.60871889 L10.9821015,6.60871889 Z M12.402997,5.89904147 L21.6496776,5.89904147 L21.6496776,4.1742212 L19.0724776,4.1742212 C18.6801075,4.1742212 18.3620299,3.85648848 18.3620299,3.46454378 L18.3620299,2.75334562 C18.3620299,2.01771429 17.7629194,1.41935484 17.0264896,1.41935484 C16.2899582,1.41935484 15.6907463,2.01771429 15.6907463,2.75334562 L15.6907463,3.46454378 C15.6907463,3.85648848 15.3726687,4.1742212 14.9802985,4.1742212 L12.4028955,4.1742212 L12.4028955,5.89904147 L12.402997,5.89904147 Z M33.9586925,5.17101382 L33.9586925,42.2416221 C33.9586925,43.1844793 33.1909015,43.9514378 32.2470209,43.9514378 L1.80585672,43.9514378 C0.862077612,43.9514378 0.0942865672,43.1844793 0.0942865672,42.2416221 L0.0942865672,5.17101382 C0.0942865672,4.22815668 0.862077612,3.46119816 1.80585672,3.46119816 L8.68857313,3.46119816 C9.08094328,3.46119816 9.3990209,3.77893088 9.3990209,4.17087558 C9.3990209,4.56282028 9.08094328,4.880553 8.68857313,4.880553 L4.72112836,4.880553 L4.72112836,39.1134654 L29.3317493,39.1134654 L29.3317493,4.880553 L25.364203,4.880553 C24.9718328,4.880553 24.6537552,4.56282028 24.6537552,4.17087558 C24.6537552,3.77893088 24.9718328,3.46119816 25.364203,3.46119816 L32.2469194,3.46119816 C33.1908,3.46119816 33.9586925,4.22815668 33.9586925,5.17101382 L33.9586925,5.17101382 Z M32.537797,5.17101382 C32.537797,5.01356682 32.4045373,4.880553 32.2470209,4.880553 L30.7526448,4.880553 L30.7526448,39.8231429 C30.7526448,40.2150876 30.4345672,40.5328203 30.042197,40.5328203 L4.0106806,40.5328203 C3.61831045,40.5328203 3.30023284,40.2150876 3.30023284,39.8231429 L3.30023284,4.880553 L1.80585672,4.880553 C1.64823881,4.880553 1.51518209,5.0136682 1.51518209,5.17101382 L1.51518209,42.2416221 C1.51518209,42.3990691 1.6483403,42.5320829 1.80585672,42.5320829 L32.2470209,42.5320829 C32.4046388,42.5320829 32.537797,42.3989677 32.537797,42.2416221 L32.537797,5.17101382 L32.537797,5.17101382 Z M8.08834627,13.0096037 C7.74540299,13.2001014 7.62188657,13.6321935 7.81259104,13.974765 L9.11798806,16.3204516 C9.24333134,16.5456221 9.48092537,16.6853272 9.7389194,16.6853272 C9.99681194,16.6853272 10.2345075,16.5456221 10.3598507,16.3204516 L12.6355164,12.2315945 C12.8262209,11.889023 12.7027045,11.4569309 12.3597612,11.2664332 C12.0170209,11.0761382 11.5842567,11.1992166 11.3935522,11.5418894 L9.73881791,14.5150323 L9.05435224,13.2850599 C8.86395224,12.9424885 8.43128955,12.819106 8.08834627,13.0096037 L8.08834627,13.0096037 Z M12.3598627,21.7956129 C12.0169194,21.6052166 11.5842567,21.7284977 11.3936537,22.0710691 L9.7389194,25.0441106 L9.05445373,23.8141382 C8.86385075,23.4715668 8.43118806,23.3479816 8.08824478,23.538682 C7.74530149,23.7291797 7.62178507,24.1612719 7.81248955,24.5038433 L9.11788657,26.84953 C9.24322985,27.0747005 9.48082388,27.2144055 9.73881791,27.2144055 C9.99671045,27.2144055 10.234406,27.0748018 10.3597493,26.84953 L12.6354149,22.7607742 C12.8263224,22.4182028 12.702806,21.9861106 12.3598627,21.7956129 L12.3598627,21.7956129 Z M16.2733134,16.2399539 L22.3861075,16.2399539 C22.7784776,16.2399539 23.0965552,15.9222212 23.0965552,15.5302765 C23.0965552,15.1383318 22.7784776,14.8205991 22.3861075,14.8205991 L16.2733134,14.8205991 C15.8809433,14.8205991 15.5628657,15.1383318 15.5628657,15.5302765 C15.5628657,15.9222212 15.8809433,16.2399539 16.2733134,16.2399539 L16.2733134,16.2399539 Z M25.6191522,11.6222857 L16.2733134,11.6222857 C15.8809433,11.6222857 15.5628657,11.9400184 15.5628657,12.3319631 C15.5628657,12.7239078 15.8809433,13.0416406 16.2733134,13.0416406 L25.6191522,13.0416406 C26.0115224,13.0416406 26.3296,12.7239078 26.3296,12.3319631 C26.3296,11.9400184 26.0115224,11.6222857 25.6191522,11.6222857 L25.6191522,11.6222857 Z" id="XMLID_1151_"></path>
                </g>
            </g>
        </g>
    </g>
</svg>