
<svg viewBox="0 0 54 43" version="1.1" xmlns="http://www.w3.org/2000/svg" xmlns:xlink="http://www.w3.org/1999/xlink">
            <path d="M53.12527,41.28 L48.4017279,41.28 L48.4017279,39.2131333 C50.0064492,38.777056 51.2008639,37.170576 51.2008639,35.26 C51.2008639,33.0154 49.5527559,31.1893333 47.5269978,31.1893333 C45.5012397,31.1893333 43.8531317,33.0154 43.8531317,35.26 C43.8531317,37.170576 45.0475464,38.777056 46.6522678,39.2131333 L46.6522678,41.28 L42.8034557,41.28 L42.8034557,32.4400027 C44.5074298,31.27304 45.6025918,29.4762133 45.6025918,27.4626667 C45.6025918,25.791744 44.8181339,21.515136 43.6504276,17.8120907 C42.0118834,12.6163147 40.2279006,10.0906667 38.1965443,10.0906667 C36.6698488,10.0906667 35.2839266,11.5252613 33.9860605,14.4588933 C31.5470799,7.57579733 28.001041,0.885112 27.7747775,0.460616 C27.6237408,0.177389333 27.3252829,0 27,0 C26.6747171,0 26.3762592,0.177389333 26.2252225,0.460730667 C26.2065616,0.495818667 24.3297408,4.02491467 22.3713952,8.53590133 C19.9804665,14.0436853 18.499257,18.5755413 17.9590238,22.03148 C17.8759827,22.0217333 17.7925918,22.016 17.7083844,22.016 C16.1788898,22.016 14.853149,23.619384 13.6572181,26.9141013 C13.4407516,25.2741387 12.9942894,22.996056 12.4145184,20.941 C11.6558359,18.2520667 10.4038056,14.6773333 8.30025486,14.6773333 C6.1967041,14.6773333 4.94467387,18.2520667 4.18610799,20.941 C3.35639741,23.881168 2.79913607,27.2797733 2.79913607,28.6093333 C2.79913607,31.2167387 4.82629374,33.38348 7.46436285,33.7665813 L7.46436285,41.28 L0.874730022,41.28 C0.391529158,41.28 0,41.6650507 0,42.14 C0,42.6149493 0.391529158,43 0.874730022,43 L53.12527,43 C53.6084708,43 54,42.6149493 54,42.14 C54,41.6650507 53.6084708,41.28 53.12527,41.28 L53.12527,41.28 Z M45.6025918,35.26 C45.6025918,33.963808 46.465892,32.9093333 47.5269978,32.9093333 C48.5881037,32.9093333 49.4514039,33.963808 49.4514039,35.26 C49.4514039,36.556192 48.5881037,37.6106667 47.5269978,37.6106667 C46.465892,37.6106667 45.6025918,36.556192 45.6025918,35.26 L45.6025918,35.26 Z M41.0539957,41.28 L39.0712743,41.28 L39.0712743,33.7808 C39.7658099,33.71028 40.4315378,33.5580027 41.0539957,33.3334853 L41.0539957,41.28 L41.0539957,41.28 Z M14.812095,36.8495093 C15.4071447,37.1388133 16.0776544,37.3414293 16.7948164,37.4355707 L16.7948164,41.28 L14.812095,41.28 L14.812095,36.8495093 L14.812095,36.8495093 Z M18.5442765,37.446464 C19.6620648,37.312648 20.6692873,36.914296 21.4600432,36.3368347 L21.4600432,41.28 L18.5442765,41.28 L18.5442765,37.446464 L18.5442765,37.446464 Z M23.2095032,33.0309947 C24.1308855,33.437144 25.1143153,33.691704 26.12527,33.7850427 L26.12527,41.28 L23.2095032,41.28 L23.2095032,33.0309947 L23.2095032,33.0309947 Z M27.87473,33.784928 C29.2700994,33.655928 30.576013,33.2215707 31.7235421,32.5507707 L31.7235421,41.28 L27.87473,41.28 L27.87473,33.784928 L27.87473,33.784928 Z M35.3630022,28.6451093 L37.3218143,30.570936 L37.3218143,32.0500213 C36.0676847,31.8909787 34.924121,31.39172 34.0531231,30.6182933 C34.5711965,30.0214533 35.0138099,29.3595973 35.3630022,28.6451093 L35.3630022,28.6451093 Z M33.4730022,32.3656987 C34.5671145,33.14612 35.8971706,33.6388427 37.3218143,33.782176 L37.3218143,41.28 L33.4730022,41.28 L33.4730022,32.3656987 L33.4730022,32.3656987 Z M36.6536371,13.149056 C37.2194125,12.2984587 37.7818056,11.8106667 38.1965443,11.8106667 C38.424324,11.8106667 39.0544795,11.9789973 39.9841425,13.53812 C40.6601339,14.6718293 41.3500043,16.325896 41.9793434,18.32144 C43.1858877,22.1472933 43.8531317,26.155008 43.8531317,27.4626667 C43.8531317,29.7791627 41.776406,31.7046453 39.0712743,32.0509387 L39.0712743,30.21524 L39.0712743,30.2140933 L39.0712743,28.7362693 L41.6142894,26.2360773 C41.9559006,25.9002187 41.9559006,25.3556667 41.6142894,25.0199227 C41.2725616,24.684064 40.7187991,24.684064 40.3771879,25.0199227 L39.0712743,26.3037307 L39.0712743,24.7106667 C39.0712743,24.2357173 38.6797451,23.8506667 38.1965443,23.8506667 C37.7133434,23.8506667 37.3218143,24.2357173 37.3218143,24.7106667 L37.3218143,28.1383973 L36.0160173,26.8545893 C36.0146177,26.8532133 36.0131015,26.8520667 36.0117019,26.8506907 C36.1804665,26.1638373 36.2722549,25.447744 36.2722549,24.7106667 C36.2722549,22.523744 35.6952829,19.8301093 34.842013,17.0419893 C35.4332138,15.3773733 36.0424924,14.0674213 36.6536371,13.149056 L36.6536371,13.149056 Z M27,2.769544 C29.0615637,6.87529867 34.5226782,18.3526293 34.5226782,24.7106667 C34.5226782,28.4977627 31.6119266,31.62736 27.87473,32.0550667 L27.87473,28.3805733 L27.87473,28.3794267 L27.87473,25.9842693 L31.3507905,22.566744 C31.6924017,22.2308853 31.6924017,21.6863333 31.3507905,21.3505893 C31.0090626,21.0147307 30.4553002,21.0147307 30.113689,21.3505893 L27.87473,23.5517307 L27.87473,20.124 C27.87473,19.6490507 27.4832009,19.264 27,19.264 C26.5167991,19.264 26.12527,19.6490507 26.12527,20.124 L26.12527,25.6274267 L26.12527,25.6285733 L26.12527,26.3037307 L23.8864276,24.1025893 C23.5446998,23.7667307 22.9909374,23.7667307 22.6493261,24.1025893 C22.3077149,24.438448 22.3077149,24.983 22.6493261,25.318744 L26.12527,28.7362693 L26.12527,32.0562133 C24.9790238,31.9253787 23.8804795,31.538952 22.9078963,30.9178027 C22.9031145,30.9147067 22.8980994,30.9124133 22.8932009,30.909432 C22.6501425,29.745336 22.2765745,28.3578693 21.8050367,27.0384 C21.1169158,25.1129173 20.3857581,23.7520533 19.597568,22.9367733 C20.4117667,16.3913707 25.119797,6.513984 27,2.769544 L27,2.769544 Z M15.2622894,27.6086373 C16.3571015,24.545432 17.3411145,23.736 17.7083844,23.736 C18.0756544,23.736 19.0596674,24.545432 20.1544795,27.6086373 C20.9951533,29.9607947 21.4600432,32.4053733 21.4600432,33.196 C21.4600432,34.397592 20.1913348,35.438192 18.5442765,35.7076587 L18.5442765,33.884 C18.5442765,33.4090507 18.1527473,33.024 17.6695464,33.024 C17.1863456,33.024 16.7948164,33.4090507 16.7948164,33.884 L16.7948164,35.6949307 C15.1856631,35.4059707 13.9568423,34.378672 13.9568423,33.196 C13.9568423,32.4053733 14.4217322,29.9607947 15.2622894,27.6086373 L15.2622894,27.6086373 Z M4.54859611,28.6093333 C4.54859611,27.5797413 5.01978402,24.4204453 5.87188769,21.4008133 C7.04402592,17.2465547 8.08542117,16.3973333 8.30025486,16.3973333 C8.51497192,16.3973333 9.5564838,17.2465547 10.728622,21.4008133 C11.5806091,24.4203307 12.051797,27.579856 12.051797,28.6093333 C12.051797,30.2440213 10.8422203,31.6200213 9.21382289,32.001288 L9.21382289,30.2146667 C9.21382289,29.7397173 8.82229374,29.3546667 8.33909287,29.3546667 C7.85589201,29.3546667 7.46436285,29.7397173 7.46436285,30.2146667 L7.46436285,32.018144 C5.79689417,31.662792 4.54859611,30.269936 4.54859611,28.6093333 L4.54859611,28.6093333 Z M9.21382289,33.7533947 C10.4182678,33.5615573 11.4906868,32.997512 12.2954384,32.1902587 C12.2378229,32.5982427 12.2073823,32.942128 12.2073823,33.196 C12.2073823,34.040864 12.5220518,34.828968 13.062635,35.4943787 L13.062635,41.28 L9.21382289,41.28 L9.21382289,33.7533947 L9.21382289,33.7533947 Z" id="Shape"></path>

</svg>
