<?xml version="1.0" encoding="UTF-8"?>
<svg width="41px" height="41px" viewBox="0 0 41 41" version="1.1" xmlns="http://www.w3.org/2000/svg" xmlns:xlink="http://www.w3.org/1999/xlink">
    <!-- Generator: Sketch 42 (36781) - http://www.bohemiancoding.com/sketch -->
    <title>pricing</title>
    <desc>Created with Sketch.</desc>
    <defs></defs>
    <g id="Page-1" stroke="none" stroke-width="1" fill-rule="evenodd">
        <g id="pricing">
            <g id="search">
                <g id="Group">
                    <path d="M19.1639511,14.5879837 C18.2955193,13.8782077 16.9928717,13.3521385 15.2476578,12.9095723 L15.1641548,12.9095723 L15.1641548,8.49226069 C16.3832994,8.66761711 17.4270876,9.1101833 18.4708758,9.81995927 L19.9488798,7.69898167 C18.4708758,6.63014257 16.8175153,6.01221996 15.1641548,5.9287169 L15.1641548,4.69287169 L13.6861507,4.69287169 L13.6861507,5.75336049 C12.2081466,5.84521385 10.989002,6.27942974 10.0287169,7.16456212 C9.06843177,8.0496945 8.63421589,9.19368635 8.63421589,10.5213849 C8.63421589,11.9325866 9.06843177,12.9095723 9.85336049,13.610998 C10.6382892,14.3207739 11.9409369,14.8468432 13.6778004,15.2894094 L13.6778004,19.8820774 C12.2832994,19.706721 10.9806517,18.996945 9.67800407,17.8529532 L8.02464358,19.8820774 C9.67800407,21.3851324 11.590224,22.2702648 13.6778004,22.4456212 L13.6778004,24.1240326 L15.1558045,24.1240326 L15.1558045,22.4456212 C16.7256619,22.3537678 18.0283096,21.9195519 18.9802444,21.0344196 C19.9405295,20.1492872 20.3747454,19.0052953 20.3747454,17.6775967 C20.3747454,16.3498982 20.0323829,15.2894094 19.1639511,14.5879837 L19.1639511,14.5879837 Z M13.5942974,12.4670061 C12.7258656,12.1997963 12.1997963,11.8490835 11.8574338,11.5818737 C11.5985743,11.314664 11.4232179,10.8720978 11.4232179,10.3460285 C11.4232179,9.81995927 11.5985743,9.37739308 12.0327902,9.01832994 C12.3835031,8.66761711 12.9930754,8.40040733 13.6026477,8.40040733 L13.6026477,12.4670061 L13.5942974,12.4670061 Z M16.892668,19.2641548 C16.4584521,19.6148676 15.8488798,19.8820774 15.0639511,19.9739308 L15.0639511,15.7319756 C16.0242363,15.9991853 16.6338086,16.2580448 16.9761711,16.6171079 C17.3268839,16.9678208 17.5022403,17.410387 17.5022403,17.9448065 C17.5022403,18.4708758 17.3268839,18.913442 16.892668,19.2641548 L16.892668,19.2641548 Z" id="Shape"></path>
                    <path d="M39.8643585,34.6370672 L30.5621181,25.1845214 L28.5580448,27.2136456 L24.9924644,23.5979633 C27.0549898,21.101222 28.290835,17.8863544 28.290835,14.3792261 C28.290835,6.44643585 21.9529532,0.016700611 14.1454175,0.016700611 C6.33788187,0.016700611 0,6.44643585 0,14.3792261 C0,22.3120163 6.33788187,28.7417515 14.1454175,28.7417515 C17.8780041,28.7417515 21.2682281,27.2720978 23.7983707,24.8839104 L27.3305499,28.4661914 L25.4266802,30.395112 L34.6454175,39.8476578 C36.3572301,41.6513238 38.9625255,40.8496945 39.8643585,39.9395112 C40.7828921,38.9625255 41.6930754,36.4240326 39.8643585,34.6370672 L39.8643585,34.6370672 Z M14.1537678,26.9714868 C7.29816701,26.9714868 1.74521385,21.3350305 1.74521385,14.3708758 C1.74521385,7.40672098 7.29816701,1.77861507 14.1537678,1.77861507 C21.0093686,1.77861507 26.5623218,7.41507128 26.5623218,14.3792261 C26.5623218,21.3433809 21.0010183,26.9714868 14.1537678,26.9714868 L14.1537678,26.9714868 Z M38.5617108,38.6118126 C37.8686354,39.3215886 36.5576375,39.3215886 35.8645621,38.6118126 L27.7731161,30.395112 L30.4702648,27.5643585 L38.5617108,35.7810591 C39.797556,36.8498982 38.9124236,38.2610998 38.5617108,38.6118126 L38.5617108,38.6118126 Z" id="Shape"></path>
                </g>
            </g>
        </g>
    </g>
</svg>
