<svg id="Layer_1" data-name="Layer 1" xmlns="http://www.w3.org/2000/svg" viewBox="0 0 61.8 79.43"><title>print</title><path d="M22.72,5.9c.56.12,1.36.24,2,.3l.29,0A1.58,1.58,0,0,0,26.59,4.7c.32-1.7.48-3.41-.46-4.35L25.91.13H25.6a2.2,2.2,0,0,0-1.91,1.05l-.3.36A9,9,0,0,0,22.05,3.4l-.12.22a1.71,1.71,0,0,0-.29,1.56A1.45,1.45,0,0,0,22.72,5.9Z"/><path d="M37.26,35a8,8,0,0,0,4.34-1.35c5.08-3.24,5.63-9.92,3.91-15.11-1.39-4.21-5-11.34-9.84-11.34a5.21,5.21,0,0,0-2.29.55c-2.6,1.27-2.77,4.08-2.9,6.34l0,.71c-.1,1.43-.28,2.9-.44,4.32a60.3,60.3,0,0,0-.55,7C29.45,31,33,35,37.26,35ZM33.49,19.48c.17-1.44.34-2.93.45-4.41l0-.75c.11-1.83.23-3.05.94-3.4a1.72,1.72,0,0,1,.76-.2c2,0,5.12,4.72,6.52,8.94,1.29,3.9,1,8.83-2.47,11.06a4.58,4.58,0,0,1-2.46.8c-2.38,0-4.31-2.41-4.31-5.38a56.67,56.67,0,0,1,.53-6.59v-.08l-.5-.06Z"/><path d="M4.44,27.64a1.06,1.06,0,0,0,.48.12,1.35,1.35,0,0,0,1-.58L6,27.07a1.8,1.8,0,0,1,1.53-.15l.33.1a1.49,1.49,0,0,0,1.57-.09,1.4,1.4,0,0,0,.25-1.39,7.15,7.15,0,0,0-.58-1.42,6.12,6.12,0,0,1-.49-1.21c0-.19-.09-.41-.13-.63-.18-1-.36-2-1.23-2.24s-1.43.38-1.86.85A6.83,6.83,0,0,0,3.9,25l-.1.85s0,.1,0,.18A1.45,1.45,0,0,0,4.44,27.64Z"/><path d="M32.38,3.44a2.78,2.78,0,0,0,.76,2.21,1.85,1.85,0,0,0,1.55.28,2.25,2.25,0,0,1,.67.17,3.43,3.43,0,0,0,1.08.24,1.39,1.39,0,0,0,.49-.08,1.21,1.21,0,0,0,.79-.74,1.49,1.49,0,0,0-.32-1.29l-.1-.17c-.13-.23-.26-.49-.4-.77a7.11,7.11,0,0,0-2.19-3A1.48,1.48,0,0,0,33.08.17c-.84.5-.81,1.77-.73,2.92Z"/><path d="M51.91,25.11l0-.5h0l.05.5h0a5.21,5.21,0,0,1,.83,0l.26.05a4.32,4.32,0,0,0,.89.12,1.19,1.19,0,0,0,1.14-.6c.33-.61-.1-1.34-.5-2l-.12-.22a10.75,10.75,0,0,0-2.27-3.18L51.93,19h-.31c-1.42,0-1.55,2.17-1.64,3.67,0,.18,0,.32,0,.42a2,2,0,0,0,.36,1.69A1.8,1.8,0,0,0,51.91,25.11Z"/><path d="M20.88,33.66a7.78,7.78,0,0,0,2.81-.55c5.89-2.28,5-10.39,4.55-15.22l0-.53c-.32-4-.81-10-5.49-10a5.63,5.63,0,0,0-1,.09,10.64,10.64,0,0,0-6.9,4.81A17.9,17.9,0,0,0,12,24.79C12.93,29.2,16.26,33.66,20.88,33.66Zm1.83-22.84c.36,0,1.45,0,2,6.82l0,.59c.52,5,.8,10.4-2.33,11.62a4.3,4.3,0,0,1-1.55.31c-2.72,0-4.83-3.13-5.42-6.07a14.13,14.13,0,0,1,2.27-9.9,7.38,7.38,0,0,1,4.61-3.33A2.19,2.19,0,0,1,22.71,10.83Z"/><path d="M15.82,47.61a11.42,11.42,0,0,0,.23-11.53c-2.12-3.82-4.72-7.73-7.83-7.73-1.54,0-3,.95-4.36,2.82C.88,35.28-1.22,41.78.8,47c1.44,3.73,3.93,5.78,7,5.78S13.95,50.76,15.82,47.61ZM8.23,31.85c.35,0,1.71.43,4.75,5.91a8,8,0,0,1-.17,8.06c-1.24,2.08-3.25,3.47-5,3.47-2,0-3.13-1.93-3.75-3.54-1.54-4,.29-9.29,2.63-12.53C7.49,32.14,8,31.85,8.23,31.85Z"/><path d="M59.49,33.42l-.06-.13c-1.3-2.62-3.26-6.57-6.75-6.94-3.78-.41-5.77,4-7.07,6.94-.14.32-.28.62-.41.9C42.61,39.77,39.67,46.1,45,51.47A8.23,8.23,0,0,0,51,53.91a11.13,11.13,0,0,0,10.16-7.37C62.51,41.07,61.62,37.71,59.49,33.42ZM57.78,45.58A7.62,7.62,0,0,1,51,50.41,4.74,4.74,0,0,1,47.52,49c-3.4-3.39-1.94-7.3.86-13.32l.43-1c.65-1.46,2.17-4.88,3.5-4.88h0c1.57.17,3.14,3.32,4,5l.06.13C58.42,39.13,58.75,41.61,57.78,45.58Z"/><path d="M46.94,56.43l-.35.36h0l.34-.37h0a35.06,35.06,0,0,1-6.59-7.31c-3.21-5.1-7.29-7.9-11.46-7.9a12.32,12.32,0,0,0-7.65,3,32.65,32.65,0,0,0-5.13,5.62c-.91,1.16-1.85,2.37-2.82,3.41-.7.75-1.45,1.46-2.29,2.25-2,1.87-4,3.81-5.21,6.31a13.32,13.32,0,0,0,.87,12.51,10.58,10.58,0,0,0,9.18,5.1c2.4-.07,4.83-.28,6.39-1.33a10.92,10.92,0,0,1,6.22-1.84,29.68,29.68,0,0,1,6.65,1,32.12,32.12,0,0,0,7.22,1.1c.42,0,.81,0,1.21,0a11.69,11.69,0,0,0,9.63-6.6A9.92,9.92,0,0,0,52,61.5,51.76,51.76,0,0,0,46.94,56.43ZM42.3,74.9a29.28,29.28,0,0,1-6.45-1,32.77,32.77,0,0,0-7.42-1.12,14.34,14.34,0,0,0-8.16,2.43c-.43.29-1.57.65-4.5.74a7.18,7.18,0,0,1-6.18-3.48,9.74,9.74,0,0,1-.65-9.15c.89-1.9,2.62-3.53,4.46-5.27.81-.77,1.66-1.56,2.43-2.4,1.09-1.17,2.08-2.44,3-3.68a29.41,29.41,0,0,1,4.52-5,9,9,0,0,1,5.47-2.26c4,0,7,3.93,8.5,6.27a38.53,38.53,0,0,0,7.2,8,48.46,48.46,0,0,1,4.64,4.64A6.39,6.39,0,0,1,50,70.28a8.14,8.14,0,0,1-6.72,4.58C42.93,74.88,42.62,74.9,42.3,74.9Z"/></svg>