<?xml version="1.0" encoding="UTF-8"?>
<svg width="60px" height="27px" viewBox="0 0 60 27" version="1.1" xmlns="http://www.w3.org/2000/svg" xmlns:xlink="http://www.w3.org/1999/xlink">
            <path d="M52.1034397,12.5296726 L52.1022793,12.5296726 C51.5896229,12.5296726 51.1745545,12.9576106 51.1745545,13.4854248 C51.1745545,14.0132389 51.5906672,14.441177 52.1034397,14.441177 C52.6162122,14.441177 53.0317447,14.0132389 53.0317447,13.4854248 C53.0317447,12.9576106 52.6160961,12.5296726 52.1034397,12.5296726 L52.1034397,12.5296726 Z" id="Shape"></path>
            <path d="M59.1141152,16.5132478 L57.4878409,15.3969292 L59.1141152,14.2806106 C59.363017,14.1097699 59.5166515,13.8259115 59.5269789,13.5181593 C59.5371902,13.2104071 59.4028181,12.9163938 59.1658682,12.7283496 C58.8345794,12.4655177 51.4474762,6.68011062 42.8000829,5.92172124 C42.7195524,4.06553097 42.3155077,1.78988496 40.6314463,0.329734513 C40.4214173,0.147544248 40.1407211,0.0697699115 39.8701202,0.118154867 C39.4339329,0.196646018 39.2459511,0.531278761 39.1657688,0.674163717 C38.3711397,2.08891593 36.5776544,2.71433628 35.213046,2.98983186 C31.7027766,3.69852212 29.7799088,5.22939823 28.8374472,6.26567257 C27.6727725,5.02869027 25.4211687,2.97203097 23.3236635,2.97203097 C22.9403896,2.97203097 22.5965686,3.2145531 22.4581351,3.58239823 C22.3197016,3.95036283 22.415085,4.36814602 22.698218,4.6339646 C22.7033237,4.63886283 23.2225943,5.13979646 23.5783672,5.96030973 C23.9893742,6.90781858 24.0006299,7.86834956 23.6138748,8.82123451 C22.1953087,9.2795177 20.8544882,9.74735841 19.5856113,10.190708 C16.2080895,11.3705841 13.2637381,12.3990929 10.7936345,12.5180841 C10.3008206,11.8291062 9.23094903,10.385323 7.87840862,8.86687168 C5.33241608,6.00857522 3.09775383,4.35380973 1.23638624,3.94833186 C0.865760464,3.86816814 0.484227103,4.02718142 0.273153751,4.35130088 C0.0620803978,4.67553982 0.0637049316,5.09941593 0.277331123,5.42186283 C2.00954828,8.03763717 4.7575632,12.7993142 4.7575632,14.441177 C4.7575632,16.0816062 2.00943224,20.844 0.277331123,23.4603717 C0.0638209697,23.7828186 0.062196436,24.2065752 0.273269789,24.5308142 C0.447791131,24.7990221 0.738930792,24.9544513 1.0442271,24.9544513 C1.10793203,24.9544513 1.1723332,24.9476416 1.23650228,24.9337832 C3.09786987,24.5283053 5.33253212,22.8735398 7.87852466,20.0152434 C9.23106506,18.496792 10.3009366,17.0530088 10.7937505,16.364031 C13.2638541,16.4830221 16.2082056,17.511531 19.5857273,18.6914071 C19.9550767,18.8204336 20.3308081,18.9516106 20.7123415,19.0839823 C20.9321177,20.0669735 20.951264,21.1374159 19.8477414,22.4046239 C19.6109076,22.6764159 19.5447659,23.0652876 19.6780937,23.4036239 C19.7793949,23.6606018 20.0187816,23.9755221 20.5848156,24.0160221 C20.6795027,24.0228319 20.7871861,24.0265354 20.9063572,24.0265354 C22.3033402,24.0265354 25.266838,23.5020664 27.0171571,21.0819823 C30.2589142,21.9704735 33.8751264,22.6982788 37.936809,22.9485664 C38.2571902,23.7016991 38.2487194,25.0593451 38.1551927,25.8173761 C38.1092416,26.1827124 38.2713469,26.5425531 38.5717696,26.7425442 C38.7250559,26.8445708 38.9002735,26.8957035 39.0757232,26.8957035 C39.2443266,26.8957035 39.41293,26.8483938 39.562271,26.7538938 C40.9797928,25.8557257 42.0784418,23.9965487 42.5762453,22.9939646 C48.0163448,22.6706814 52.2506921,20.7854602 55.1385329,19.4990177 C56.6261417,18.8362035 57.9107998,18.2639469 58.599138,18.2639469 C59.0081724,18.2639469 59.369051,17.9882124 59.4876419,17.5851239 C59.6062329,17.1820354 59.4545711,16.7468097 59.1141152,16.5132478 L59.1141152,16.5132478 Z M35.5702114,4.86585398 C37.0150021,4.57423009 38.8550186,3.94211947 40.0932615,2.5734823 C40.679138,3.51931858 40.8764028,4.7435177 40.9367426,5.83964602 C37.2895483,5.84143805 33.9794447,6.24679646 30.9607128,6.85764159 C31.8589639,6.14369469 33.3176792,5.3205531 35.5702114,4.86585398 L35.5702114,4.86585398 Z M25.507269,5.82519027 C26.2457356,6.35360177 26.9748031,7.03015487 27.5594032,7.6545 C26.9246747,7.82271239 26.3039867,7.99725664 25.6968753,8.17634071 C25.8122172,7.32560177 25.7176461,6.52969912 25.507269,5.82519027 L25.507269,5.82519027 Z M22.333162,21.931885 C22.6406631,21.1693142 22.7204973,20.4409115 22.680116,19.7546814 C23.4444592,20.0092699 24.232242,20.2629027 25.0449731,20.5104425 C24.2172731,21.335615 23.1845338,21.7377478 22.333162,21.931885 L22.333162,21.931885 Z M39.8956486,23.0300442 C40.0683133,23.0337478 40.2417903,23.0363761 40.4159635,23.0382876 C40.2901782,23.2422212 40.1515126,23.4538009 40.0025197,23.6629912 C39.9768753,23.4526062 39.9411355,23.2401903 39.8956486,23.0300442 L39.8956486,23.0300442 Z M55.2993618,16.192115 L56.3442851,16.9094071 C55.7651388,17.1372345 55.1230999,17.4233628 54.4013427,17.744854 C52.4246332,18.6254602 49.9969996,19.7060575 47.0594944,20.406146 C45.4030501,19.3127655 44.5765106,17.5890664 44.6035475,15.2822389 C44.6253626,13.4271239 45.2202901,11.7003186 45.4883382,11.197354 C45.7350352,10.7346504 45.5706092,10.1536726 45.1210775,9.89968142 C44.6716618,9.64569027 44.1072524,9.81509735 43.8606714,10.2778009 C43.4435143,11.0604425 42.7723498,13.1047965 42.7470535,15.2593009 C42.7203647,17.5366195 43.3885122,19.4409558 44.6944053,20.8603673 C43.8585827,20.9819867 42.9874845,21.067885 42.0789059,21.1069513 C41.9902528,21.0969159 41.9020638,21.1002611 41.8164277,21.1159115 C41.5345711,21.1252301 41.2501616,21.131323 40.9612267,21.131323 C32.3481807,21.131323 25.6024202,18.7747965 20.1819312,16.8813319 C16.4336676,15.5719513 13.196552,14.4410575 10.3271612,14.4410575 C10.0245338,14.4410575 9.74082056,14.5929027 9.56699544,14.848208 C8.57301285,16.3081195 6.1268131,19.4880265 3.71635309,21.4544867 C5.06390385,19.1316504 6.61417323,16.0984513 6.61417323,14.441177 C6.61417323,12.7843805 5.0649482,9.75285398 3.71797762,7.4300177 C6.12692913,9.39659735 8.57278077,12.5747124 9.56734356,14.034146 C9.74116867,14.2890929 10.0247659,14.4410575 10.3273933,14.4410575 C13.1967841,14.4410575 16.4338997,13.3101637 20.1821633,12.0007832 C21.4633402,11.5532522 22.8195939,11.0799159 24.2559138,10.6179292 C24.4377455,10.6169735 24.6151678,10.5592699 24.7665976,10.4553319 C29.2981185,9.02684071 34.6238044,7.75079204 40.9614588,7.75079204 C47.8724575,7.75079204 54.4406797,11.7410575 56.9553419,13.4649956 L55.2993618,14.6016239 C55.0410609,14.7787965 54.8859179,15.0772301 54.8859179,15.3968097 C54.8859179,15.7163894 55.041177,16.0149425 55.2993618,16.192115 L55.2993618,16.192115 Z" id="Shape"></path>
            <path d="M40.4512391,14.3006814 L40.6011604,14.3662699 C41.0737837,14.5710398 41.6180025,14.3427345 41.8170079,13.8562566 C42.0158972,13.3697788 41.7941484,12.8093496 41.3216411,12.6044602 L41.1797265,12.5423363 C39.9651554,12.0086681 36.7384832,10.5915265 33.0889681,12.6471106 C32.7948114,12.8130531 32.6098467,13.1303628 32.6061334,13.4757478 C32.6000995,14.0372522 32.9076005,14.2319867 33.5812018,14.6586106 C33.8906755,14.8547788 34.3356817,15.1311106 34.8680646,15.4579779 C35.8237547,16.0449292 36.993419,16.7531416 37.7126233,17.1803628 C38.3626689,17.5663673 39.002271,17.7069823 39.5764277,17.7069823 C40.4061003,17.7068628 41.0983838,17.4130885 41.4844426,17.1420133 C41.9079818,16.8447743 42.0172897,16.2500575 41.7284708,15.8139956 C41.4396519,15.3779336 40.8621301,15.2652743 40.4384749,15.5627522 C40.4305843,15.5684867 39.6164608,16.1043053 38.6404642,15.5245221 C37.7904849,15.019646 36.5503854,14.2671106 35.5793784,13.6688097 C37.7316535,13.1063496 39.5046001,13.8850487 40.4512391,14.3006814 L40.4512391,14.3006814 Z" id="Shape"></path>

</svg>
