<?xml version="1.0" encoding="UTF-8"?>
<svg width="45px" height="43px" viewBox="0 0 45 43" version="1.1" xmlns="http://www.w3.org/2000/svg" xmlns:xlink="http://www.w3.org/1999/xlink">
    <!-- Generator: Sketch 42 (36781) - http://www.bohemiancoding.com/sketch -->
    <title>survival</title>
    <desc>Created with Sketch.</desc>
    <defs></defs>
    <g id="Page-1" stroke="none" stroke-width="1" fill="none" fill-rule="evenodd">
        <g id="survival">
            <g id="campfire">
                <g id="Capa_1">
                    <path d="M44.3676724,39.0330545 C44.4918103,38.1988545 44.3692241,37.3458909 44.0037931,36.5664182 C43.5165517,35.5281636 42.6576724,34.7424364 41.5838793,34.3554364 C41.5784483,34.3530909 41.5730172,34.3530909 41.5675862,34.3515273 L30.5293966,30.3681636 C33.2123276,27.5653455 34.9153448,23.3841818 34.9153448,18.4688909 C34.9153448,9.42950909 32.5877586,5.9598 32.5877586,5.9598 C32.5877586,13.3870727 26.3808621,18.4688909 26.3808621,18.4688909 C26.3808621,12.6052545 24.0532759,7.52343636 24.0532759,7.52343636 C24.0532759,12.1166182 20.9498276,14.5598 20.9498276,14.5598 C16.8036207,10.3817636 20.9498276,0.487072727 20.9498276,0.487072727 C15.0455172,1.27201818 9.75801724,5.37343636 9.75801724,12.2143455 C9.75801724,17.0522364 11.0987069,20.2702 13.1912069,22.3779818 C13.1912069,22.3779818 11.334569,21.2928182 9.48258621,20.5766727 C9.97293103,24.4881091 11.5937069,27.9257636 13.9088793,30.3595636 L2.86215517,34.3452727 C2.85206897,34.3491818 2.8412069,34.3507455 2.83112069,34.3546545 C1.75810345,34.7416545 0.898448276,35.5273818 0.411206897,36.5656364 C0.0457758621,37.3458909 -0.0768103448,38.1980727 0.0473275862,39.0322727 C0.0884482759,39.3098182 0.155948276,39.5850182 0.252155172,39.8547455 C0.376293103,40.2034364 0.554741379,40.5185091 0.756465517,40.8171636 C1.17931034,41.4434 1.74801724,41.9578364 2.44551724,42.2908909 C3.02508621,42.5668727 3.64422414,42.7052545 4.26646552,42.7052545 L4.26956897,42.7052545 L4.27422414,42.7052545 C4.75758621,42.7052545 5.24094828,42.6216 5.70801724,42.4527273 L22.2075,36.4984 L38.7069828,42.4527273 C38.7535345,42.4699273 38.8024138,42.4738364 38.8489655,42.4886909 C39.0537931,42.5551455 39.2593966,42.6114364 39.4681034,42.6458364 C39.5643103,42.6614727 39.6605172,42.6622545 39.7567241,42.6708545 C39.887069,42.6833636 40.0174138,42.7052545 40.1485345,42.7052545 C40.1958621,42.7052545 40.2424138,42.699 40.2889655,42.6974364 C40.3324138,42.6958727 40.3750862,42.6927455 40.4185345,42.6904 C40.6644828,42.6739818 40.9088793,42.6395818 41.1493966,42.5801636 C41.1703448,42.5746909 41.1905172,42.5676545 41.2114655,42.5621818 C41.4690517,42.4949455 41.7227586,42.4081636 41.9687069,42.2908909 C42.6685345,41.9578364 43.2387931,41.4410545 43.6616379,40.8116909 C43.8618103,40.5146 44.0394828,40.2010909 44.162069,39.8547455 C44.2590517,39.5858 44.3273276,39.3106 44.3676724,39.0330545 L44.3676724,39.0330545 Z M39.2306897,40.9797818 L39.2306897,40.9797818 C38.547931,40.7335091 38.0009483,40.2331455 37.6906034,39.5725091 C37.3802586,38.9118727 37.344569,38.1691455 37.5897414,37.4803636 C37.8341379,36.7923636 38.3299138,36.2419636 38.9855172,35.9292364 C39.3540517,35.7533273 39.7481897,35.6657636 40.1438793,35.6657636 C40.4449138,35.6657636 40.7475,35.7181455 41.04,35.8213455 L41.0609483,35.8291636 C41.7398276,36.0738727 42.2860345,36.5750182 42.5963793,37.238 C42.8299138,37.7352364 42.9090517,38.2770364 42.8314655,38.8055455 C42.8050862,38.9814545 42.7624138,39.1558 42.7018966,39.3262364 C42.6297414,39.5287273 42.5296552,39.7155818 42.4163793,39.8914909 C42.1448276,40.3113273 41.7677586,40.6545455 41.3037931,40.8750182 C40.9756034,41.0321636 40.6280172,41.1197273 40.2773276,41.1377091 C39.9258621,41.1549091 39.5712931,41.1025273 39.2306897,40.9797818 L39.2306897,40.9797818 Z M11.6449138,23.306 C12.1088793,23.5530545 12.4052586,23.7258364 12.4130172,23.7297455 C12.6566379,23.8720364 12.9250862,23.9408364 13.1896552,23.9408364 C13.6582759,23.9408364 14.1183621,23.7274 14.4209483,23.3302364 C14.8957759,22.7079091 14.8391379,21.8268 14.2882759,21.2717091 C12.3121552,19.2804182 11.3097414,16.2328909 11.3097414,12.2135636 C11.3097414,9.45452727 12.312931,7.03323636 14.2106897,5.21081818 C15.3907759,4.07718182 16.8928448,3.19607273 18.5780172,2.63081818 C17.5569828,6.18027273 16.4932759,12.2800182 19.8527586,15.6652909 C20.1537931,15.9686364 20.5510345,16.1234364 20.9506034,16.1234364 C21.2865517,16.1234364 21.6232759,16.0139818 21.9056897,15.7919455 C21.9918103,15.7247091 23.1757759,14.7724545 24.1812931,12.9906909 C24.5451724,14.5988909 24.8291379,16.4901091 24.8291379,18.4688909 C24.8291379,19.0724545 25.1736207,19.6212909 25.7143966,19.8808545 C25.9269828,19.9824909 26.1543103,20.0325273 26.3808621,20.0325273 C26.7307759,20.0325273 27.0775862,19.9136909 27.36,19.6822727 C27.5593966,19.5188727 30.9832759,16.6675818 32.8872414,12.0697091 C33.1634483,13.7428 33.3636207,15.8576182 33.3636207,18.4681091 C33.3636207,23.3748 31.5488793,27.5348545 28.6758621,30.0335455 C28.5641379,30.1265818 28.4555172,30.2266545 28.3422414,30.315 C28.3368103,30.3196909 28.3306034,30.3236 28.3243966,30.3282909 C27.9667241,30.6042727 27.5966379,30.8466364 27.2226724,31.0725818 C27.7882759,30.1406545 28.1164655,29.0500182 28.1164655,27.8694727 C28.1164655,24.5232909 27.0256034,23.1433818 26.9014655,22.9971818 C26.690431,22.7477818 26.3475,22.6570909 26.0433621,22.7720182 C25.7384483,22.8853818 25.5367241,23.1785636 25.5367241,23.5053636 C25.5367241,24.6945091 24.8151724,25.8586364 24.1533621,26.6764182 C23.8437931,25.1964364 23.2665517,24.0362182 23.2339655,23.9697636 C23.0718103,23.6476545 22.7125862,23.4795636 22.3611207,23.5624364 C22.0119828,23.6460909 21.7652586,23.9611636 21.7652586,24.3231455 C21.7652586,24.8524364 21.0289655,25.0564909 20.5440517,25.1331091 C20.2802586,24.3700545 20.5556897,22.8103273 20.8761207,21.8447818 C20.9599138,21.5930364 20.9110345,21.3147091 20.7465517,21.1075273 C20.5812931,20.8995636 20.3221552,20.7916727 20.0606897,20.8182545 C17.0868103,21.1302 15.4489655,22.8595818 15.4489655,25.6866364 C15.4489655,26.4997273 15.5731034,27.2307273 15.8198276,27.8765091 C15.7383621,27.9085636 15.6607759,27.9554727 15.5932759,28.0148909 C15.3915517,28.1923636 15.2953448,28.4613091 15.3372414,28.7279091 C15.3969828,29.1055273 15.4908621,29.4706364 15.6118966,29.8208909 C13.8522414,28.1978364 12.4510345,25.9462 11.6449138,23.306 L11.6449138,23.306 Z M17.3288793,29.9022 C17.3847414,29.9272182 17.4173276,29.9412909 17.4188793,29.9420727 C17.7757759,30.1062545 18.1986207,29.9756909 18.4034483,29.6387273 C18.6082759,29.3009818 18.5306897,28.8623818 18.2226724,28.6176727 C17.4002586,27.9632909 17.0006897,27.004 17.0006897,25.6858545 C17.0006897,24.0776545 17.6803448,23.0620727 19.0706897,22.6070545 C18.8239655,23.8157455 18.6866379,25.5326182 19.5726724,26.4919091 C19.7224138,26.6537455 19.9249138,26.7272364 20.1514655,26.7405273 C20.7698276,26.7319273 21.6993103,26.5599273 22.3913793,26.0736364 C22.6016379,26.7475636 22.7932759,27.5872364 22.7932759,28.4128364 C22.7932759,28.7169636 22.9678448,28.9929455 23.2409483,29.1211636 C23.5148276,29.2493818 23.8368103,29.2071636 24.0672414,29.0117091 C24.1525862,28.9397818 25.5576724,27.7357818 26.4212069,26.0361091 C26.5057759,26.5403818 26.5639655,27.1470727 26.5639655,27.8679091 C26.5639655,30.4580727 24.5777586,32.4227818 21.9103448,32.5298909 C21.3540517,32.5166 20.8055172,32.4517091 20.2678448,32.3336545 C18.9892241,31.9560364 17.9255172,31.0780545 17.3288793,29.9022 L17.3288793,29.9022 Z M4.27112069,35.6657636 C4.66681034,35.6657636 5.06172414,35.7541091 5.42948276,35.9292364 C6.08586207,36.2411818 6.58086207,36.7923636 6.82603448,37.4803636 C7.07043103,38.1683636 7.03474138,38.9118727 6.72439655,39.5725091 C6.41482759,40.2339273 5.86784483,40.7327273 5.18508621,40.9797818 C4.8437069,41.1025273 4.48913793,41.1549091 4.13767241,41.1384909 C3.78698276,41.1205091 3.43862069,41.0329455 3.11043103,40.8758 C2.64801724,40.6553273 2.27172414,40.3136727 2.00094828,39.8954 C1.88612069,39.7179273 1.78525862,39.5310727 1.71310345,39.3262364 C1.65258621,39.1550182 1.60913793,38.9806727 1.58353448,38.8055455 C1.50594828,38.2770364 1.58586207,37.7352364 1.81862069,37.238 C2.12974138,36.5750182 2.67517241,36.0746545 3.35405172,35.8291636 L3.37422414,35.8221273 C3.66672414,35.7189273 3.96931034,35.6657636 4.27112069,35.6657636 L4.27112069,35.6657636 Z M8.25827586,39.8719455 C8.3862931,39.5193455 8.47396552,39.1581455 8.50732759,38.7906909 C8.51663793,38.7906909 8.52594828,38.7953818 8.53525862,38.7953818 C8.61594828,38.7953818 8.69896552,38.7820909 8.78043103,38.7547273 L13.4356034,37.1910909 C13.8421552,37.0542727 14.0617241,36.6117636 13.9259483,36.2020909 C13.7901724,35.7932 13.3518103,35.5703818 12.9444828,35.7079818 L8.35913793,37.2481636 C8.33198276,37.1504364 8.31956897,37.0503636 8.28543103,36.9534182 C8.21637931,36.7587455 8.13025862,36.5758 8.03793103,36.3983273 L10.3321552,35.6274545 C10.7387069,35.4906364 10.9582759,35.0481273 10.8225,34.6384545 C10.6875,34.2287818 10.2491379,34.0059636 9.84103448,34.1443455 L7.51344828,34.9261636 C7.3512931,34.9808909 7.22948276,35.0919091 7.13793103,35.2232545 C6.92612069,35.0293636 6.69646552,34.8573636 6.45206897,34.7111636 L15.0160345,31.6206364 C16.6383621,32.8574727 18.4337069,33.6455455 20.3089655,33.9543636 C20.7527586,34.0489636 21.2112931,34.1044727 21.6830172,34.1044727 C21.7512931,34.1044727 21.8172414,34.0966545 21.8855172,34.0950909 C21.9615517,34.0966545 22.0360345,34.1044727 22.112069,34.1044727 C22.5015517,34.1044727 22.8871552,34.0771091 23.2712069,34.0372364 C23.3968966,34.0239455 23.5210345,34.0059636 23.6451724,33.9887636 C23.9066379,33.9520182 24.1657759,33.9058909 24.4233621,33.8511636 C24.5575862,33.8230182 24.6925862,33.7972182 24.8252586,33.7636 C25.1681897,33.6768182 25.5080172,33.5775273 25.8431897,33.4586909 C25.9681034,33.4141273 26.0891379,33.3586182 26.2125,33.3101455 C26.4491379,33.2171091 26.6842241,33.1186 26.9162069,33.0091455 C27.0411207,32.9497273 27.1644828,32.8871818 27.287069,32.8238545 C27.579569,32.6737455 27.8674138,32.5103455 28.1513793,32.3344364 C28.1785345,32.3172364 28.2064655,32.3023818 28.2336207,32.2851818 C28.5827586,32.0647091 28.9280172,31.8325091 29.2631897,31.5729455 L37.9831034,34.7197636 C37.6843966,34.8972364 37.4097414,35.1044182 37.1661207,35.3452182 C37.08,35.1552364 36.9225,34.9980909 36.7099138,34.9269455 L34.3823276,34.1451273 C33.975,34.0075273 33.5366379,34.2295636 33.4008621,34.6392364 C33.2650862,35.0489091 33.4846552,35.4914182 33.8912069,35.6282364 L36.2187931,36.4100545 C36.2684483,36.4272545 36.3188793,36.4288182 36.3693103,36.4350727 C36.2824138,36.6047273 36.1908621,36.7712545 36.1264655,36.9542 C36.0830172,37.0777273 36.0651724,37.2043818 36.0325862,37.3294727 C35.9984483,37.3122727 35.9712931,37.2849091 35.9340517,37.2724 L31.2788793,35.7087636 C30.8707759,35.5719455 30.4324138,35.7939818 30.2974138,36.2028727 C30.1616379,36.6125455 30.3812069,37.0550545 30.7877586,37.1918727 L35.442931,38.7555091 C35.5243966,38.7828727 35.6074138,38.7961636 35.6881034,38.7961636 C35.7610345,38.7961636 35.8316379,38.7820909 35.9006897,38.7625455 C35.9325,39.1401636 36.0225,39.5107455 36.1543966,39.8727273 L22.2051724,34.8386 L8.25827586,39.8719455 L8.25827586,39.8719455 Z" id="Shape"></path>
                </g>
            </g>
        </g>
    </g>
</svg>
