<svg id="Layer_1" data-name="Layer 1" xmlns="http://www.w3.org/2000/svg" viewBox="0 0 86 86"><title>whatsapp</title><path d="M27.32,17l-.12,0c-4.27,1.31-7.15,3.57-8.72,6.47a14.73,14.73,0,0,0-1.09,9.94c1.4,7.19,6.5,15.14,13,21.75s14.3,11.88,21.53,13.38a14.91,14.91,0,0,0,10.09-1c3-1.57,5.43-4.48,7-8.84a1,1,0,0,0-.41-1.16l-14.31-9-.09-.06-.06-.06h0l-.06,0h0l-.16-.09h-.12l-.19,0-.19,0a1,1,0,0,0-.47.22l0,.06a1,1,0,0,0-.16.19l-3.69,3.66c-6.4-3-11.15-8.3-15.37-15.44L37,33.61l.16-.16.06-.06h0l0-.06,0,0,0-.06s0,0,0,0l0,0,0-.06,0,0s0,0,0-.06,0,0,0-.06l0,0s0,0,0-.06,0,0,0,0,0,0,0-.06,0,0,0,0,0,0,0-.06,0,0,0,0,0,0,0-.06,0,0,0,0l0-.06s0,0,0,0l0-.06s0,0,0,0l-.06-.06s0,0,0,0l0,0a1,1,0,0,0-.12-.19l0,0L28.35,17.49a1,1,0,0,0-.81-.47h-.22Z"/><path d="M43,0A43,43,0,0,0,7.32,67L2.26,83.85a1,1,0,0,0,1.28,1.23l16.52-5.7A43,43,0,1,0,43,0Zm0,2A41,41,0,1,1,20.74,77.44a1,1,0,0,0-.87-.11L4.74,82.56,9.37,67.11a1,1,0,0,0-.13-.85A41,41,0,0,1,43,2Z"/></svg>
