<?xml version="1.0" encoding="UTF-8"?>
<svg  viewBox="0 0 33 40" version="1.1" xmlns="http://www.w3.org/2000/svg" xmlns:xlink="http://www.w3.org/1999/xlink">

                    <path d="M19.581,26.1169231 C19.2558,26.1169231 18.9282,26.2750769 18.6,26.6030769 L18.6,33.3716923 C18.9282,33.7064615 19.2558,33.8676923 19.581,33.8676923 C20.1456,33.8676923 20.4348,33.3716923 20.4348,32.3698462 L20.4348,27.6326154 C20.4354,26.6283077 20.1456,26.1169231 19.581,26.1169231 L19.581,26.1169231 Z" id="Shape"></path>
                    <path d="M26.7606,26.1169231 C26.1048,26.1169231 25.7754,26.6283077 25.7754,27.6566154 L25.7754,28.6849231 L27.7398,28.6849231 L27.7398,27.6566154 C27.7404,26.6283077 27.4122,26.1169231 26.7606,26.1169231 L26.7606,26.1169231 Z" id="Shape"></path>
                        <path d="M30.8376,18.4916923 C29.6046,17.1753846 28.2234,17.1698462 27.5892,17.0941538 C23.0556,16.7618462 16.2558,16.7618462 16.2558,16.7618462 L16.2408,16.7618462 C16.2408,16.7618462 9.441,16.7618462 4.9032,17.0941538 C4.2708,17.1698462 2.892,17.176 1.6578,18.4916923 C0.687,19.496 0.3696,21.7698462 0.3696,21.7698462 C0.3696,21.7698462 0.048,24.4424615 0.048,27.1144615 L0.048,29.6209231 C0.048,32.2923077 0.3696,34.9661538 0.3696,34.9661538 C0.3696,34.9661538 0.687,37.24 1.6578,38.2406154 C2.892,39.5569231 4.5096,39.5156923 5.229,39.6529231 C7.8234,39.9070769 16.248,39.984 16.248,39.984 C16.248,39.984 23.0562,39.9741538 27.5898,39.6381538 C28.224,39.5636923 29.6052,39.5563077 30.8382,38.2406154 C31.8096,37.24 32.1264,34.9661538 32.1264,34.9661538 C32.1264,34.9661538 32.448,32.2923077 32.448,29.6209231 L32.448,27.1144615 C32.448,24.4424615 32.1264,21.7698462 32.1264,21.7698462 C32.1264,21.7698462 31.809,19.496 30.8376,18.4916923 L30.8376,18.4916923 Z M7.1874,35.5415385 L5.0022,35.5415385 L5.0022,22.7403077 L2.6916,22.7403077 L2.6916,20.6443077 L9.54,20.6443077 L9.54,22.7403077 L7.188,22.7403077 L7.188,35.5415385 L7.1874,35.5415385 Z M14.9346,35.5415385 L12.9678,35.5415385 L12.9678,34.3298462 C12.1884,35.2461538 11.4438,35.6966154 10.7226,35.6966154 C10.0902,35.6966154 9.654,35.4307692 9.4554,34.8683077 C9.3486,34.5323077 9.2838,34.0012308 9.2838,33.2172308 L9.2838,24.4412308 L11.2488,24.4412308 L11.2488,32.6135385 C11.2488,33.0843077 11.2488,33.3298462 11.2632,33.3950769 C11.313,33.7070769 11.4648,33.8683077 11.7258,33.8683077 C12.1206,33.8683077 12.5304,33.5563077 12.9672,32.9249231 L12.9672,24.4412308 L14.934,24.4412308 L14.934,35.5415385 L14.9346,35.5415385 Z M22.3986,32.2129231 C22.3986,33.2363077 22.3326,33.9766154 22.2,34.4473846 C21.9372,35.2744615 21.4122,35.6966154 20.6322,35.6966154 C19.9314,35.6966154 19.2558,35.2984615 18.6,34.4664615 L18.6,35.5415385 L16.6338,35.5415385 L16.6338,20.6443077 L18.6,20.6443077 L18.6,25.5089231 C19.2336,24.7095385 19.9074,24.3052308 20.6322,24.3052308 C21.4116,24.3052308 21.9366,24.7286154 22.2,25.5581538 C22.3326,26.0067692 22.3986,26.7384615 22.3986,27.7907692 L22.3986,32.2129231 L22.3986,32.2129231 Z M29.706,30.3569231 L25.776,30.3569231 L25.776,32.3255385 C25.776,33.3538462 26.1054,33.8676923 26.7798,33.8676923 C27.2634,33.8676923 27.5448,33.5969231 27.6576,33.0609231 C27.675,32.9513846 27.7014,32.5021538 27.7014,31.6953846 L29.706,31.6953846 L29.706,31.9901538 C29.706,32.6369231 29.6802,33.0830769 29.6634,33.2861538 C29.5986,33.7310769 29.4426,34.1341538 29.2038,34.4892308 C28.6602,35.2966154 27.8538,35.6953846 26.826,35.6953846 C25.7994,35.6953846 25.0176,35.3150769 24.45,34.5550769 C24.0324,34 23.8194,33.1236923 23.8194,31.9452308 L23.8194,28.0566154 C23.8194,26.8707692 24.0102,26.0055385 24.4266,25.4418462 C24.9942,24.6824615 25.776,24.304 26.7798,24.304 C27.7656,24.304 28.548,24.6818462 29.0976,25.4418462 C29.5086,26.0055385 29.7066,26.8707692 29.7066,28.0566154 L29.7066,30.3569231 L29.706,30.3569231 Z"></path>
                        <path d="M11.0616,15.6516923 L11.0616,9.55446154 L13.7088,0.599384615 L11.4828,0.599384615 L9.981,6.51015385 L8.418,0.599384615 L6.1002,0.599384615 C6.5664,1.99507692 7.0488,3.39569231 7.5138,4.79384615 C8.2182,6.89292308 8.6598,8.47507692 8.8602,9.55384615 L8.8602,15.6510769 L11.0616,15.6510769 L11.0616,15.6516923 Z"></path>
                        <path d="M16.2282,15.8061538 C17.2218,15.8061538 17.9934,15.4221538 18.543,14.6590769 C18.9582,14.0990769 19.1604,13.2153846 19.1604,12.0209231 L19.1604,8.09046154 C19.1604,6.89353846 18.9582,6.01846154 18.543,5.45107692 C17.9928,4.68184615 17.2218,4.30030769 16.2282,4.30030769 C15.2358,4.30030769 14.4624,4.68184615 13.9158,5.45107692 C13.4916,6.01846154 13.2954,6.89353846 13.2954,8.09046154 L13.2954,12.0209231 C13.2954,13.2153846 13.4916,14.0990769 13.9158,14.6590769 C14.4624,15.4221538 15.2358,15.8061538 16.2282,15.8061538 L16.2282,15.8061538 Z M15.2796,7.68369231 C15.2796,6.64615385 15.588,6.12738462 16.2282,6.12738462 C16.8654,6.12738462 17.172,6.64676923 17.172,7.68369231 L17.172,12.4030769 C17.172,13.4412308 16.8654,13.96 16.2282,13.96 C15.588,13.96 15.2796,13.4406154 15.2796,12.4030769 L15.2796,7.68369231 L15.2796,7.68369231 Z"></path>
                        <path d="M26.3928,15.6516923 L26.3928,4.43261538 L24.408,4.43261538 L24.408,13.008 C23.9682,13.6443077 23.5518,13.9606154 23.1552,13.9606154 C22.8882,13.9606154 22.7304,13.7975385 22.689,13.4849231 C22.6638,13.4178462 22.6638,13.1710769 22.6638,12.6941538 L22.6638,4.43261538 L20.6844,4.43261538 L20.6844,13.3052308 C20.6844,14.0984615 20.7492,14.6350769 20.8602,14.9735385 C21.0594,15.5396923 21.501,15.8061538 22.14,15.8061538 C22.8624,15.8061538 23.616,15.3556923 24.4086,14.4276923 L24.4086,15.6516923 L26.3928,15.6516923 L26.3928,15.6516923 Z"></path>

</svg>
